<svg width="98" height="44" viewBox="0 0 98 44" fill="none" xmlns="http://www.w3.org/2000/svg">
<g clip-path="url(#clip0_1110_138696)">
<path d="M90.1684 0H7.8316C3.50633 0 0 3.55354 0 7.93705V36.0629C0 40.4465 3.50633 44 7.8316 44H90.1684C94.4937 44 98 40.4465 98 36.0629V7.93705C98 3.55354 94.4937 0 90.1684 0Z" fill="#044D80"/>
<path d="M9.44434 12.07H20.939V7.70776L9.44434 12.07Z" fill="#FF9D28"/>
<path d="M20.939 7.70767V23.1256L26.3746 5.65179L20.939 7.70767Z" fill="#68C5ED"/>
<path d="M20.9391 12.0702H16.5991L20.9391 23.1131V12.0702Z" fill="white"/>
<path d="M9.44434 12.0702L17.7141 14.9027L16.5942 12.0702H9.44434Z" fill="#E54747"/>
<path d="M35.7882 19.0537C35.6925 19.1433 35.588 19.2227 35.4762 19.2906C35.2954 19.406 35.1037 19.5034 34.9042 19.5809C34.6223 19.6927 34.3305 19.7768 34.0328 19.832C33.6468 19.9045 33.2548 19.9396 32.8623 19.937C32.1061 19.95 31.3548 19.8113 30.6517 19.5289C30.0552 19.2738 29.5288 18.8759 29.1174 18.3692C28.704 17.8546 28.4026 17.257 28.2332 16.616C28.0339 15.8913 27.9375 15.1417 27.9469 14.3894C27.9403 13.631 28.0456 12.8757 28.2591 12.1489C28.4449 11.4986 28.7589 10.8934 29.1823 10.3698C29.5959 9.86229 30.1217 9.46034 30.7168 9.19686C31.4029 8.90333 32.1422 8.75991 32.8867 8.77564C33.2577 8.77438 33.6279 8.80973 33.9921 8.88129C34.289 8.94565 34.5805 9.03372 34.8637 9.14456C35.0766 9.23091 35.2812 9.33644 35.4753 9.46013C35.6037 9.54277 35.7254 9.63559 35.8393 9.73759C35.9383 9.82342 36.0219 9.92572 36.0865 10.0403C36.1525 10.1569 36.1885 10.2884 36.1909 10.4228C36.1837 10.654 36.1016 10.8765 35.9571 11.0556C35.8013 11.2685 35.6272 11.4669 35.4369 11.6487C35.3071 11.5167 35.1641 11.3853 35.0078 11.2538C34.8424 11.1173 34.6637 10.9985 34.4744 10.8991C34.2637 10.79 34.0412 10.706 33.8115 10.6486C33.5399 10.5774 33.2604 10.5422 32.9799 10.5437C32.5076 10.5254 32.0395 10.6392 31.6269 10.8727C31.2736 11.084 30.975 11.3776 30.756 11.729C30.5297 12.0967 30.3711 12.5029 30.2877 12.9279C30.1949 13.3833 30.148 13.8472 30.1477 14.3121C30.1474 14.7943 30.1942 15.2752 30.2877 15.748C30.3716 16.1813 30.5396 16.5934 30.7819 16.9604C31.0126 17.3126 31.3251 17.602 31.692 17.8032C32.1215 18.0276 32.6005 18.1364 33.0834 18.1194C33.3556 18.1201 33.6268 18.0847 33.8899 18.0138C34.1156 17.9447 34.3335 17.8519 34.5402 17.737C34.7126 17.6393 34.8778 17.5291 35.0344 17.4072C35.1744 17.2887 35.2941 17.1836 35.3844 17.1041C35.4495 17.1836 35.5146 17.2752 35.6056 17.3809C35.6917 17.4846 35.7699 17.5948 35.8393 17.7107C35.917 17.8291 35.9696 17.9476 36.034 18.0654C36.0814 18.164 36.1081 18.2717 36.1124 18.3813C36.1156 18.5043 36.0886 18.6261 36.034 18.736C35.9616 18.8491 35.8788 18.9549 35.7869 19.0523L35.7882 19.0537ZM43.9027 17.8284C43.8551 18.4655 43.981 19.1035 44.2667 19.673C44.0957 19.7462 43.9169 19.7993 43.734 19.8313C43.5622 19.8625 43.3884 19.8798 43.214 19.8836C42.9117 19.9022 42.6114 19.8239 42.3557 19.6595C42.1531 19.5012 42.0183 19.2703 41.979 19.0142C41.7171 19.2867 41.403 19.5018 41.0559 19.6467C40.6142 19.8273 40.1402 19.9126 39.6642 19.8971C39.3742 19.8966 39.0856 19.8567 38.806 19.7787C38.5225 19.7008 38.2572 19.5667 38.0255 19.3838C37.7848 19.1877 37.5897 18.9404 37.4537 18.6595C37.299 18.3118 37.2233 17.9333 37.2323 17.552C37.2117 17.0764 37.3491 16.6076 37.6223 16.2205C37.8823 15.8804 38.216 15.6051 38.5975 15.4165C38.996 15.2199 39.4202 15.0828 39.8573 15.0088C40.2706 14.9386 40.6874 14.89 41.1056 14.8633C41.2308 14.8522 41.3564 14.8477 41.4821 14.8498H41.8203V14.5602C41.836 14.3975 41.8148 14.2335 41.7584 14.0804C41.702 13.9273 41.6118 13.7895 41.4947 13.6772C41.1812 13.4787 40.8134 13.3864 40.4447 13.4139C40.031 13.4081 39.6202 13.484 39.2351 13.6374C38.8773 13.7848 38.5297 13.9568 38.1948 14.1518C38.0463 13.9705 37.9281 13.7659 37.8448 13.5459C37.773 13.3926 37.7291 13.2276 37.7148 13.0585C37.7215 12.9719 37.7471 12.8876 37.7898 12.8122C37.8326 12.7369 37.8912 12.6722 37.9617 12.6228C38.1663 12.4608 38.3944 12.332 38.638 12.241C38.9584 12.1182 39.2893 12.0257 39.6265 11.9639C40.0128 11.8941 40.4044 11.859 40.7968 11.8589C41.2835 11.8461 41.7696 11.9037 42.2402 12.0304C42.5982 12.1317 42.9278 12.3168 43.2027 12.5704C43.4557 12.8262 43.6392 13.1438 43.7354 13.4926C43.8452 13.9137 43.8976 14.348 43.8909 14.7836L43.904 17.8284H43.9027ZM41.8727 15.97H41.6514C41.5775 15.9679 41.5035 15.9725 41.4303 15.9835C41.1706 16.0098 40.9102 16.0359 40.6505 16.0757C40.4098 16.1104 40.1768 16.1861 39.9611 16.2998C39.7686 16.4029 39.6 16.5468 39.4668 16.7213C39.3316 16.9128 39.263 17.1442 39.2722 17.3795C39.262 17.6561 39.3497 17.9274 39.5193 18.1444C39.6297 18.2591 39.7641 18.3471 39.9127 18.4017C40.0613 18.4564 40.2203 18.4762 40.3776 18.4599C40.5709 18.4605 40.7632 18.4341 40.9494 18.3813C41.1192 18.3348 41.2812 18.2628 41.4303 18.1683C41.5517 18.0929 41.6614 17.9999 41.7559 17.8918C41.8226 17.8144 41.8635 17.7174 41.8727 17.6151V15.9679V15.97ZM47.8409 12.8074C48.0697 12.558 48.3377 12.3487 48.634 12.188C49.0492 11.9631 49.516 11.8537 49.9865 11.8714C50.3685 11.8695 50.7476 11.9368 51.1064 12.0696C51.4629 12.2095 51.7832 12.4301 52.0424 12.7149C52.3402 13.0587 52.5619 13.4634 52.6927 13.9013C52.874 14.4893 52.9575 15.1038 52.9398 15.7196C52.9616 16.4206 52.8649 17.1202 52.654 17.7883C52.5043 18.2618 52.2562 18.6971 51.9262 19.0651C51.649 19.3654 51.306 19.5957 50.9251 19.7371C50.5702 19.8662 50.1962 19.9328 49.8192 19.9342C49.5513 19.9372 49.2842 19.9019 49.026 19.8292C48.8266 19.7736 48.6342 19.6941 48.4534 19.5923C48.3219 19.5247 48.1996 19.4403 48.0893 19.3412C48.0323 19.2891 47.9802 19.2317 47.9333 19.17V23.1238H45.7752V12.107C45.8387 12.0898 45.9042 12.0813 45.9699 12.081C46.035 12.0675 46.1098 12.0674 46.191 12.0547C46.282 12.0547 46.373 12.0411 46.4899 12.0411C46.7979 12.0304 47.1044 12.0889 47.3873 12.2126C47.5028 12.2696 47.6039 12.353 47.6828 12.4558C47.7617 12.5586 47.8164 12.6785 47.8424 12.806L47.8409 12.8074ZM50.7019 15.7726C50.7034 15.4721 50.6771 15.1723 50.6234 14.8768C50.5765 14.6223 50.4887 14.3774 50.3637 14.1518C50.2425 13.9524 50.0718 13.7888 49.8687 13.6772C49.6364 13.5546 49.3766 13.4955 49.1149 13.5061C48.7877 13.4753 48.4606 13.5642 48.1924 13.7565C48.1131 13.8281 48.049 13.9152 48.0042 14.0129C47.9595 14.1105 47.9349 14.2163 47.9319 14.3239V17.7377C48.0664 17.8631 48.22 17.9655 48.3869 18.0408C48.6202 18.1607 48.8794 18.2195 49.1409 18.2123C49.3777 18.2263 49.6137 18.1735 49.8226 18.0595C50.0315 17.9455 50.205 17.775 50.3238 17.5669C50.6047 17.0134 50.7356 16.3941 50.7032 15.7726H50.7019ZM54.603 18.5396C54.528 18.3223 54.4797 18.0962 54.4594 17.8669C54.4381 17.6311 54.4293 17.3942 54.4334 17.1575V9.7085C54.5105 9.69327 54.5889 9.68441 54.6674 9.68217C54.7451 9.66869 54.8235 9.66861 54.9012 9.65584C54.9789 9.65584 55.0697 9.64268 55.1481 9.64268C55.3187 9.64058 55.4891 9.658 55.6557 9.69499C55.8218 9.71906 55.9787 9.78696 56.1106 9.89209C56.2555 9.99186 56.3722 10.1284 56.4488 10.288C56.5384 10.491 56.5828 10.7115 56.5791 10.9337V12.0799H58.8023V13.7011H56.5915V17.127C56.5915 17.8783 56.8904 18.2472 57.4889 18.2472C57.6299 18.2454 57.7701 18.223 57.9049 18.1811C58.0346 18.1286 58.1513 18.0759 58.2549 18.0224C58.3526 17.9718 58.4441 17.9097 58.5278 17.8378C58.6062 17.7718 58.658 17.7192 58.6965 17.6958C58.832 17.8888 58.9538 18.0912 59.0612 18.3016C59.139 18.4528 59.1834 18.6194 59.1914 18.7897C59.1895 18.9427 59.129 19.0891 59.0227 19.1978C58.8889 19.3475 58.7305 19.4725 58.5545 19.5674C58.3272 19.6975 58.0814 19.7912 57.8258 19.8448C57.5186 19.915 57.2046 19.9501 56.8898 19.9498C56.3523 19.9784 55.8185 19.8453 55.3554 19.5674C55.0161 19.3011 54.7552 18.9457 54.6014 18.5396H54.603ZM64.2628 18.3266C64.4994 18.3316 64.7354 18.3006 64.9628 18.2344C65.1508 18.1796 65.3337 18.1082 65.5095 18.0214C65.6567 17.9431 65.796 17.8507 65.9253 17.745C66.0425 17.6395 66.1466 17.5472 66.2376 17.4682C66.3884 17.6631 66.5234 17.8703 66.6409 18.0875C66.7614 18.273 66.8335 18.4863 66.8507 18.7076C66.8417 18.8391 66.8015 18.9665 66.7335 19.0789C66.6655 19.1913 66.5718 19.2855 66.4602 19.3533C66.1713 19.5562 65.8503 19.7075 65.5111 19.8008C65.0452 19.9296 64.5639 19.9916 64.081 19.9851C63.5845 19.985 63.0902 19.9186 62.6109 19.7873C62.1389 19.6606 61.6995 19.4315 61.3236 19.1157C60.9246 18.7634 60.6131 18.3209 60.4137 17.8243C60.1608 17.1748 60.0417 16.4798 60.0637 15.7819C60.0497 15.1866 60.1558 14.5945 60.3757 14.0423C60.5621 13.5846 60.8413 13.1716 61.1949 12.8299C61.5326 12.5145 61.9307 12.273 62.3645 12.1205C62.7929 11.9732 63.2422 11.8978 63.6946 11.897C64.2108 11.8834 64.7242 11.9777 65.2029 12.1738C65.5909 12.3402 65.9344 12.5978 66.2048 12.9252C66.4641 13.2415 66.6549 13.6096 66.7648 14.0056C66.8809 14.4209 66.9379 14.8508 66.9341 15.2824V15.5065C66.9359 15.5992 66.9315 15.6919 66.9208 15.784C66.9208 15.8762 66.9075 15.9685 66.9075 16.0615C66.908 16.1332 66.8994 16.2046 66.8817 16.2741H62.2139C62.2334 16.8132 62.425 17.3313 62.76 17.7505C62.9522 17.9558 63.1878 18.1147 63.449 18.215C63.7102 18.3154 63.9902 18.3546 64.2685 18.33L64.2628 18.3266ZM64.9915 15.0718C65.009 14.6346 64.9054 14.201 64.6926 13.8203C64.5754 13.6517 64.4161 13.5177 64.231 13.4319C64.046 13.3462 63.8417 13.3117 63.6392 13.3322C63.4427 13.3244 63.247 13.3621 63.0669 13.442C62.8867 13.5219 62.7267 13.6418 62.599 13.7932C62.3189 14.156 62.1802 14.6107 62.2091 15.0704L64.9915 15.0718ZM70.6867 12.8448C70.7632 12.7349 70.8457 12.6296 70.9339 12.5292C71.0467 12.4035 71.1787 12.2965 71.3245 12.2126C71.4859 12.1177 71.6554 12.0382 71.8312 11.975C72.024 11.9097 72.2267 11.8789 72.4299 11.8835C72.5601 11.8835 72.6895 11.8971 72.833 11.9099C72.9672 11.9333 73.0981 11.9731 73.2229 12.0283C73.3411 12.0801 73.4442 12.1617 73.5224 12.2653C73.6013 12.3714 73.6425 12.5014 73.6393 12.6342C73.633 12.9105 73.5755 13.183 73.47 13.4378C73.3708 13.7056 73.2539 13.9664 73.12 14.2183C72.9555 14.0841 72.7766 13.9692 72.5866 13.8757C72.3845 13.7924 72.1678 13.752 71.9497 13.7572C71.6504 13.746 71.3578 13.8498 71.1306 14.0475C71.0264 14.1309 70.942 14.2367 70.8836 14.3575C70.8252 14.4783 70.7944 14.611 70.7932 14.7455V19.937H68.6344V12.0966C68.6982 12.0798 68.7638 12.0709 68.8298 12.0702C68.8949 12.0568 68.9697 12.0567 69.0509 12.0432C69.1286 12.0432 69.2329 12.0304 69.3498 12.0304C69.6559 12.0226 69.9593 12.0902 70.2339 12.2275C70.3479 12.2934 70.4473 12.3827 70.5256 12.4894C70.6039 12.5961 70.6595 12.718 70.689 12.8476L70.6867 12.8448ZM76.8111 12.8448C76.8877 12.7351 76.9702 12.6298 77.0582 12.5292C77.171 12.4034 77.3029 12.2964 77.4488 12.2126C77.6105 12.1178 77.7803 12.0383 77.9562 11.975C78.1488 11.9097 78.3511 11.8788 78.554 11.8835C78.6842 11.8835 78.8146 11.8971 78.9574 11.9099C79.0916 11.9333 79.2224 11.9731 79.3472 12.0283C79.4652 12.0801 79.5681 12.1617 79.6461 12.2653C79.7249 12.3714 79.7661 12.5014 79.763 12.6342C79.7569 12.9105 79.6997 13.183 79.5943 13.4378C79.4953 13.7057 79.3783 13.9665 79.2443 14.2183C79.0801 14.084 78.9014 13.9691 78.7116 13.8757C78.5095 13.7924 78.2928 13.7521 78.0747 13.7572C77.7754 13.746 77.4828 13.8498 77.2556 14.0475C77.1512 14.1308 77.0668 14.2367 77.0083 14.3575C76.9497 14.4783 76.9187 14.6109 76.9175 14.7455V19.937H74.7594V12.0966C74.823 12.0798 74.8884 12.0709 74.9541 12.0702C75.0192 12.0568 75.094 12.0567 75.1752 12.0432C75.2529 12.0432 75.3572 12.0304 75.4741 12.0304C75.7802 12.0226 76.0836 12.0902 76.3582 12.2275C76.4722 12.2933 76.5716 12.3827 76.6499 12.4894C76.7282 12.5961 76.7839 12.7179 76.8133 12.8476L76.8111 12.8448ZM87.0962 17.8264C87.0485 18.4634 87.1745 19.1015 87.4602 19.6709C87.289 19.7442 87.1101 19.7973 86.9269 19.8292C86.7551 19.8604 86.5811 19.8778 86.4067 19.8815C86.1047 19.9001 85.8047 19.8217 85.5493 19.6574C85.3465 19.4992 85.2114 19.2683 85.1719 19.0121C84.9101 19.2848 84.5958 19.4999 84.2486 19.6446C83.8069 19.8253 83.3331 19.9106 82.8571 19.8951C82.5671 19.8945 82.2784 19.8547 81.9988 19.7766C81.7156 19.6986 81.4505 19.5645 81.219 19.3817C80.9786 19.1854 80.7833 18.9382 80.647 18.6574C80.4926 18.3096 80.4171 17.9312 80.4259 17.5499C80.4058 17.0743 80.5434 16.6053 80.8166 16.218C81.0765 15.8779 81.41 15.603 81.7915 15.4144C82.1901 15.2179 82.6144 15.0803 83.0516 15.0063C83.4649 14.9361 83.8814 14.8879 84.2996 14.8612C84.4251 14.8501 84.5511 14.8456 84.677 14.8477H85.0143V14.5581C85.0302 14.3955 85.0093 14.2314 84.953 14.0783C84.8967 13.9252 84.8066 13.7871 84.6896 13.6748C84.3761 13.4763 84.0083 13.3844 83.6396 13.4118C83.2259 13.406 82.8151 13.4819 82.43 13.6353C82.0723 13.7828 81.7247 13.9547 81.3898 14.1497C81.2411 13.9685 81.1229 13.7638 81.0398 13.5438C80.9678 13.3906 80.9237 13.2255 80.9095 13.0564C80.9163 12.9698 80.942 12.8855 80.9847 12.8102C81.0275 12.7348 81.0862 12.6702 81.1567 12.6207C81.3611 12.4587 81.5893 12.3298 81.8329 12.2389C82.1534 12.1162 82.4843 12.0233 82.8214 11.9615C83.2075 11.8917 83.5988 11.8566 83.991 11.8565C84.4778 11.8436 84.9638 11.9016 85.4344 12.0283C85.7924 12.1296 86.1221 12.3147 86.3969 12.5684C86.6501 12.824 86.8336 13.1416 86.9296 13.4905C87.04 13.9115 87.0925 14.3459 87.0856 14.7815L87.099 17.8264H87.0962ZM85.0661 15.9679H84.845C84.7712 15.9659 84.6975 15.9701 84.6245 15.9811C84.3641 16.0073 84.1044 16.0339 83.844 16.0736C83.6036 16.1085 83.3707 16.1843 83.1551 16.2977C82.9626 16.4008 82.7942 16.5443 82.6611 16.7189C82.5256 16.9103 82.4568 17.1421 82.4657 17.3774C82.4556 17.654 82.5432 17.9253 82.7129 18.1423C82.8232 18.257 82.9577 18.345 83.1063 18.3997C83.2549 18.4543 83.4137 18.4741 83.5709 18.4578C83.7642 18.4585 83.9568 18.4321 84.1429 18.3792C84.313 18.3328 84.4752 18.2608 84.6245 18.1662C84.7457 18.0908 84.8551 17.9978 84.9492 17.8898C85.0161 17.8124 85.0571 17.7154 85.0661 17.613V15.9655V15.9679Z" fill="white"/>
<path d="M15.717 29.5456L16.8265 31.8228C16.8573 31.8863 16.903 31.9412 16.9594 31.9828C17.0159 32.0245 17.0816 32.0516 17.1507 32.0618L19.6308 32.4273C19.7104 32.439 19.7851 32.4731 19.8466 32.5257C19.9081 32.5782 19.954 32.6473 19.9789 32.7248C20.0037 32.8024 20.0066 32.8854 19.9873 32.9645C19.9679 33.0437 19.927 33.1158 19.8693 33.1727L18.0752 34.9463C18.0252 34.9957 17.9878 35.057 17.9662 35.1243C17.9446 35.1917 17.9395 35.2631 17.9513 35.3329L18.3748 37.8366C18.3884 37.917 18.3795 37.9995 18.3492 38.075C18.3188 38.1505 18.2684 38.2159 18.2032 38.2638C18.1381 38.3117 18.061 38.3404 17.9807 38.3462C17.9005 38.3521 17.8204 38.335 17.7492 38.297L15.5307 37.1144C15.4689 37.0815 15.4001 37.0642 15.3303 37.0642C15.2604 37.0642 15.1915 37.0815 15.1296 37.1144L12.9114 38.297C12.8402 38.335 12.7599 38.3521 12.6796 38.3462C12.5994 38.3404 12.5224 38.3117 12.4573 38.2638C12.3922 38.2159 12.3417 38.1505 12.3114 38.075C12.281 37.9995 12.272 37.917 12.2855 37.8366L12.709 35.3329C12.7209 35.2631 12.7159 35.1917 12.6943 35.1243C12.6727 35.057 12.6352 34.9957 12.5851 34.9463L10.791 33.1727C10.7334 33.1158 10.6926 33.0437 10.6733 32.9645C10.654 32.8854 10.6568 32.8024 10.6817 32.7248C10.7065 32.6473 10.7523 32.5782 10.8138 32.5257C10.8753 32.4731 10.9501 32.439 11.0298 32.4273L13.5099 32.0618C13.579 32.0516 13.6446 32.0245 13.7011 31.9828C13.7576 31.9412 13.8032 31.8863 13.8341 31.8228L14.9428 29.5456C14.9784 29.4722 15.0334 29.4104 15.1018 29.3672C15.1702 29.324 15.2493 29.301 15.3299 29.301C15.4106 29.301 15.4895 29.324 15.5579 29.3672C15.6263 29.4104 15.6815 29.4722 15.717 29.5456Z" fill="#FF9D28"/>
<path d="M32.8557 29.5454L33.9645 31.8226C33.9955 31.8861 34.0412 31.941 34.0978 31.9826C34.1543 32.0243 34.22 32.0513 34.2892 32.0616L36.7693 32.4271C36.849 32.4387 36.924 32.4726 36.9856 32.5251C37.0472 32.5777 37.093 32.6467 37.1179 32.7243C37.1428 32.8019 37.1457 32.8851 37.1264 32.9643C37.1071 33.0436 37.0664 33.1156 37.0087 33.1725L35.2139 34.9461C35.1638 34.9955 35.1263 35.0564 35.1047 35.1238C35.0831 35.1912 35.0781 35.2629 35.09 35.3327L35.5135 37.8364C35.5271 37.9168 35.5182 37.9993 35.4879 38.0748C35.4575 38.1503 35.4069 38.2157 35.3417 38.2636C35.2766 38.3115 35.1997 38.3401 35.1194 38.346C35.0392 38.3518 34.9589 38.3348 34.8877 38.2968L32.6694 37.1142C32.6076 37.0813 32.5388 37.064 32.4689 37.064C32.3991 37.064 32.3302 37.0813 32.2683 37.1142L30.05 38.2968C29.9788 38.3348 29.8986 38.3518 29.8183 38.346C29.7381 38.3401 29.6611 38.3115 29.596 38.2636C29.5309 38.2157 29.4802 38.1503 29.4499 38.0748C29.4195 37.9993 29.4107 37.9168 29.4242 37.8364L29.8477 35.3327C29.8596 35.2629 29.8546 35.1915 29.833 35.1241C29.8114 35.0568 29.7739 34.9955 29.7238 34.9461L27.9297 33.1725C27.872 33.1156 27.8313 33.0435 27.812 32.9643C27.7926 32.8852 27.7955 32.8022 27.8203 32.7246C27.8452 32.647 27.8909 32.578 27.9524 32.5255C28.014 32.4729 28.0888 32.4388 28.1685 32.4271L30.6485 32.0616C30.7177 32.0513 30.7834 32.0243 30.8399 31.9826C30.8965 31.941 30.9424 31.8861 30.9734 31.8226L32.0822 29.5454C32.1178 29.4722 32.1728 29.4104 32.2411 29.3673C32.3095 29.3243 32.3885 29.3015 32.4689 29.3015C32.5494 29.3015 32.6282 29.3243 32.6966 29.3673C32.7649 29.4104 32.8201 29.4722 32.8557 29.5454Z" fill="#FF9D28"/>
<path d="M49.9936 29.5454L51.1024 31.8226C51.1334 31.8861 51.1793 31.941 51.2359 31.9827C51.2925 32.0243 51.3581 32.0514 51.4273 32.0616L53.9074 32.4271C53.987 32.4388 54.0619 32.4729 54.1234 32.5255C54.1849 32.5781 54.2307 32.6471 54.2555 32.7247C54.2803 32.8022 54.2832 32.8852 54.2639 32.9644C54.2446 33.0435 54.2038 33.1157 54.1461 33.1725L52.3514 34.9461C52.3013 34.9956 52.2639 35.0568 52.2423 35.1242C52.2207 35.1915 52.2157 35.2629 52.2275 35.3327L52.6509 37.8365C52.6645 37.9168 52.6557 37.9993 52.6253 38.0748C52.595 38.1503 52.5443 38.2157 52.4792 38.2636C52.4141 38.3115 52.3371 38.3402 52.2569 38.346C52.1766 38.3519 52.0963 38.3348 52.0251 38.2968L49.8069 37.1142C49.745 37.0813 49.6761 37.064 49.6062 37.064C49.5363 37.064 49.4676 37.0813 49.4058 37.1142L47.1875 38.2968C47.1163 38.3348 47.036 38.3519 46.9558 38.346C46.8755 38.3402 46.7984 38.3115 46.7332 38.2636C46.6681 38.2157 46.6176 38.1503 46.5873 38.0748C46.557 37.9993 46.5481 37.9168 46.5617 37.8365L46.9851 35.3327C46.9971 35.2629 46.992 35.1912 46.9705 35.1238C46.9489 35.0564 46.9114 34.9955 46.8612 34.9461L45.0665 33.1725C45.0088 33.1156 44.9678 33.0436 44.9486 32.9644C44.9293 32.8851 44.9324 32.8019 44.9573 32.7243C44.9822 32.6467 45.0279 32.5777 45.0895 32.5251C45.1512 32.4726 45.226 32.4387 45.3057 32.4271L47.786 32.0616C47.8552 32.0514 47.9208 32.0243 47.9774 31.9827C48.034 31.941 48.0797 31.8861 48.1107 31.8226L49.2195 29.5454C49.255 29.472 49.3102 29.4102 49.3786 29.367C49.447 29.3238 49.5259 29.3008 49.6066 29.3008C49.6872 29.3008 49.7663 29.3238 49.8347 29.367C49.9031 29.4102 49.9581 29.472 49.9936 29.5454Z" fill="#FF9D28"/>
<path d="M67.1326 29.5454L68.2414 31.8226C68.2723 31.8861 68.3179 31.941 68.3744 31.9826C68.4309 32.0243 68.4965 32.0514 68.5656 32.0616L71.0457 32.4271C71.1253 32.4388 71.2 32.4729 71.2615 32.5255C71.3231 32.578 71.369 32.6471 71.3938 32.7246C71.4187 32.8022 71.4215 32.8852 71.4022 32.9643C71.3829 33.0435 71.3419 33.1156 71.2843 33.1725L69.4895 34.9461C69.4395 34.9955 69.4021 35.0568 69.3805 35.1241C69.3589 35.1915 69.3538 35.2629 69.3656 35.3327L69.7891 37.8364C69.8026 37.9168 69.7938 37.9993 69.7635 38.0748C69.7331 38.1503 69.6826 38.2157 69.6175 38.2636C69.5524 38.3115 69.4752 38.3402 69.395 38.346C69.3147 38.3519 69.2346 38.3348 69.1634 38.2968L66.945 37.1142C66.8831 37.0813 66.8144 37.064 66.7445 37.064C66.6747 37.064 66.6058 37.0813 66.5439 37.1142L64.3256 38.2968C64.2544 38.3348 64.1741 38.3519 64.0939 38.346C64.0136 38.3402 63.9367 38.3115 63.8716 38.2636C63.8064 38.2157 63.756 38.1503 63.7256 38.0748C63.6953 37.9993 63.6862 37.9168 63.6998 37.8364L64.1233 35.3327C64.1351 35.2629 64.13 35.1915 64.1084 35.1241C64.0868 35.0568 64.0494 34.9955 63.9994 34.9461L62.2046 33.1725C62.1469 33.1156 62.1062 33.0435 62.0869 32.9643C62.0675 32.8852 62.0704 32.8022 62.0952 32.7246C62.1201 32.6471 62.1658 32.578 62.2273 32.5255C62.2889 32.4729 62.3637 32.4388 62.4434 32.4271L64.9234 32.0616C64.9925 32.0514 65.0582 32.0243 65.1147 31.9826C65.1711 31.941 65.2168 31.8861 65.2476 31.8226L66.3571 29.5454C66.3925 29.4716 66.4475 29.4094 66.516 29.3659C66.5846 29.3225 66.664 29.2994 66.7449 29.2994C66.8258 29.2994 66.905 29.3225 66.9735 29.3659C67.0421 29.4094 67.0973 29.4716 67.1326 29.5454Z" fill="#FF9D28"/>
<path d="M84.2712 29.5454L85.38 31.8226C85.4111 31.8861 85.4567 31.941 85.5133 31.9827C85.5699 32.0243 85.6355 32.0513 85.7047 32.0616L88.1841 32.4271C88.2638 32.4387 88.3389 32.4726 88.4005 32.5251C88.4621 32.5777 88.5078 32.6467 88.5327 32.7243C88.5577 32.8019 88.5608 32.8851 88.5415 32.9643C88.5222 33.0436 88.4812 33.1156 88.4235 33.1725L86.6288 34.9461C86.5786 34.9955 86.5411 35.0564 86.5196 35.1238C86.498 35.1912 86.4929 35.2629 86.5049 35.3327L86.9283 37.8365C86.9419 37.9168 86.9331 37.9993 86.9027 38.0748C86.8724 38.1503 86.8219 38.2157 86.7568 38.2636C86.6917 38.3115 86.6145 38.3402 86.5343 38.346C86.454 38.3519 86.3737 38.3348 86.3025 38.2968L84.0843 37.1142C84.0223 37.0812 83.9534 37.064 83.8834 37.064C83.8135 37.064 83.7444 37.0812 83.6825 37.1142L81.4642 38.2968C81.393 38.3348 81.3127 38.3519 81.2325 38.346C81.1522 38.3402 81.0752 38.3115 81.0101 38.2636C80.945 38.2157 80.8944 38.1503 80.864 38.0748C80.8337 37.9993 80.8248 37.9168 80.8384 37.8365L81.2584 35.3327C81.2703 35.2629 81.2652 35.1915 81.2436 35.1241C81.222 35.0568 81.1846 34.9955 81.1345 34.9461L79.3405 33.1725C79.2828 33.1156 79.2419 33.0435 79.2225 32.9643C79.2032 32.8852 79.2062 32.8022 79.2311 32.7246C79.2559 32.6471 79.3017 32.5781 79.3632 32.5255C79.4247 32.4729 79.4994 32.4388 79.579 32.4271L82.0591 32.0616C82.1283 32.0513 82.1941 32.0243 82.2507 31.9827C82.3073 31.941 82.3529 31.8861 82.384 31.8226L83.4928 29.5454C83.5278 29.4709 83.583 29.4079 83.6519 29.3639C83.7208 29.3198 83.8005 29.2963 83.8819 29.2963C83.9634 29.2963 84.0432 29.3198 84.1121 29.3639C84.181 29.4079 84.2362 29.4709 84.2712 29.5454Z" fill="#FF9D28"/>
<path d="M88.4245 33.1726C88.4822 33.1156 88.523 33.0436 88.5423 32.9644C88.5616 32.8851 88.5585 32.8019 88.5336 32.7243C88.5087 32.6467 88.4629 32.5777 88.4013 32.5251C88.3397 32.4726 88.2648 32.4387 88.1851 32.4271L85.705 32.0623C85.6359 32.0521 85.5702 32.025 85.5136 31.9834C85.4571 31.9417 85.4112 31.8868 85.3802 31.8233L84.2714 29.5461C84.2362 29.4725 84.1813 29.4102 84.1128 29.367C84.0442 29.3238 83.965 29.3013 83.8843 29.3019V37.0647C83.9543 37.0649 84.0231 37.082 84.0851 37.1149L86.3035 38.2975C86.3747 38.3355 86.455 38.3526 86.5353 38.3467C86.6155 38.3409 86.6925 38.3122 86.7576 38.2643C86.8227 38.2164 86.8732 38.151 86.9035 38.0755C86.9339 38 86.9429 37.9175 86.9293 37.8372L86.5057 35.3334C86.4938 35.2636 86.499 35.1922 86.5206 35.1249C86.5421 35.0575 86.5795 34.9962 86.6296 34.9468L88.4245 33.1726Z" fill="#D8DAEA"/>
</g>
<defs>
<clipPath id="clip0_1110_138696">
<rect width="98" height="44" fill="white"/>
</clipPath>
</defs>
</svg>
