<svg width="98" height="48" viewBox="0 0 98 48" fill="none" xmlns="http://www.w3.org/2000/svg">
<g clip-path="url(#clip0_1110_138756)">
<path d="M97.4915 7.29293L97.2116 10.7055H95.827C95.3758 10.7005 94.9282 10.7881 94.5117 10.9631C94.0953 11.1382 93.7187 11.3969 93.4047 11.7234C93.0907 12.05 92.8458 12.4376 92.6853 12.8627C92.5249 13.2877 92.4521 13.7411 92.4712 14.1955V21.9056H88.5616V7.29224H92.2716L92.3487 9.12287C93.1334 7.86634 94.4878 7.29224 96.1657 7.29224L97.4915 7.29293ZM70.3561 21.9063H66.4311V14.1807C66.4311 12.5672 66.2911 10.5198 64.0301 10.5198C61.8601 10.5198 60.983 12.1025 60.983 13.9482V21.9063H57.0735V7.29293H60.7065L60.7836 9.15456C61.2565 8.43241 61.9089 7.84779 62.6758 7.45863C63.4426 7.06947 64.297 6.88966 65.1543 6.93672C69.0946 6.93672 70.3414 9.77479 70.3414 12.738V21.9097L70.3561 21.9063ZM55.3796 18.4937L55.0995 21.8139C54.1904 22.0543 53.2532 22.1691 52.3135 22.1553C48.6196 22.1553 47.5577 20.4488 47.5577 17.02V3.148H51.4679V7.27467H55.362L55.0821 10.6872H51.4498V16.7368C51.4498 18.1175 51.8193 18.8627 53.2193 18.8627C53.9533 18.8602 54.6818 18.7344 55.3746 18.4903M46.2746 7.29017L45.9674 10.7027H44.9047C44.4566 10.6988 44.0126 10.7876 43.6001 10.9638C43.1875 11.1401 42.8153 11.4 42.5065 11.7272C42.1977 12.0545 41.9588 12.4423 41.8048 12.8665C41.6508 13.2906 41.5849 13.7419 41.6112 14.1928V21.9028H37.6863V7.28948H41.3963L41.4734 9.12011C42.2581 7.86358 43.6125 7.28948 45.2904 7.28948L46.2746 7.29017ZM20.0009 20.2899C17.3161 21.8191 14.2623 22.5657 11.1808 22.4461C4.68551 22.245 -0.00927734 18.1805 -0.00927734 11.3073C-0.00927734 4.46376 4.73101 0.089672 11.1808 -0.00133992C14.4589 -0.0479042 17.3835 0.789547 19.6767 2.82074L16.9215 5.62869C15.2232 4.28643 13.0855 3.63832 10.9344 3.81391C6.87087 4.00016 4.42445 6.97819 4.36145 11.0737C4.31525 15.5107 7.00877 18.5663 11.2263 18.6749C12.8094 18.7797 14.3952 18.514 15.8597 17.8988V13.3694H11.4727L11.7646 9.64581H19.9995V20.2878L20.0009 20.2899ZM86.8018 15.9927H76.0638C76.1931 16.8491 76.6262 17.629 77.2826 18.1882C77.9391 18.7473 78.7745 19.0478 79.6338 19.0336C81.4034 19.0801 82.3883 18.5395 83.6812 17.2336L86.2362 19.2041C85.4752 20.1973 84.4907 20.9939 83.364 21.528C82.2373 22.0621 81.0008 22.3185 79.7564 22.2759C75.3856 22.2759 72.1222 19.2042 72.1222 14.6127C72.078 13.605 72.2403 12.5989 72.599 11.6573C72.9576 10.7156 73.5049 9.85843 74.2068 9.13941C74.9086 8.42038 75.75 7.8551 76.6783 7.47827C77.6066 7.10143 78.602 6.9211 79.6024 6.94913C84.2504 6.94913 86.8054 9.78842 86.8054 14.8301L86.8018 15.9927ZM82.877 12.9371C82.8606 12.5146 82.7582 12.0999 82.5762 11.719C82.3942 11.338 82.1364 10.9987 81.8189 10.7223C81.5014 10.4459 81.1309 10.2383 80.7305 10.1122C80.33 9.98616 79.9081 9.94418 79.491 9.98927C78.663 9.98253 77.8605 10.277 77.2305 10.8185C76.6005 11.3599 76.1853 12.1121 76.061 12.9371H82.877ZM35.2237 12.3325V21.9035H31.7763L31.6838 20.4608C30.6212 21.7794 28.8978 22.2597 27.1282 22.2597C24.4682 22.2597 21.9406 20.9417 21.8951 17.8537C21.8181 12.9983 27.313 12.6577 30.7605 12.6577H31.4528V12.4713C31.4528 10.8733 30.4063 10.002 28.4204 10.002C26.9844 10.0097 25.6046 10.5643 24.5572 11.5543L22.294 9.24275C24.1055 7.71972 26.4006 6.90486 28.7593 6.94706C33.2393 6.93154 35.2237 9.02578 35.2237 12.3304M31.4528 15.5256H30.9138C29.0665 15.5256 25.8039 15.6187 25.8193 17.5715C25.8347 20.3174 31.4682 19.449 31.4682 16.1295V15.5242L31.4528 15.5256ZM94.4367 20.211C94.4307 19.9981 94.4673 19.7861 94.5444 19.5878C94.6215 19.3895 94.7375 19.2087 94.8855 19.0566C95.0334 18.9046 95.2103 18.7844 95.4055 18.7028C95.6007 18.6212 95.8101 18.58 96.0215 18.5819C96.2325 18.5812 96.4417 18.6229 96.6364 18.7049C96.8311 18.7869 97.0074 18.9076 97.1552 19.0594C97.303 19.2112 97.4191 19.3914 97.4967 19.5892C97.5743 19.787 97.6118 19.9984 97.6071 20.211C97.6146 20.4251 97.579 20.6384 97.5026 20.8383C97.4262 21.0382 97.3105 21.2204 97.1624 21.374C97.0143 21.5277 96.8369 21.6496 96.6408 21.7323C96.4447 21.815 96.234 21.8571 96.0215 21.8556C95.8089 21.8571 95.5985 21.815 95.4025 21.7323C95.2064 21.6496 95.0289 21.5277 94.8809 21.374C94.7328 21.2204 94.6171 21.0382 94.5408 20.8383C94.4645 20.6384 94.4291 20.4251 94.4367 20.211ZM96.0215 22.1808C96.2796 22.1834 96.5358 22.1344 96.7749 22.0365C97.0141 21.9386 97.2317 21.7939 97.415 21.6107C97.5983 21.4275 97.7437 21.2092 97.8427 20.9689C97.9418 20.7286 97.9926 20.4712 97.9921 20.211C97.9924 19.9516 97.9413 19.6946 97.842 19.4552C97.7427 19.2158 97.5972 18.9989 97.4138 18.8169C97.2303 18.6349 97.0126 18.4915 96.7736 18.3952C96.5346 18.2989 96.2788 18.2516 96.0215 18.256C95.7633 18.2515 95.5069 18.2985 95.2669 18.3945C95.027 18.4906 94.8085 18.6336 94.6238 18.8155C94.4392 18.9973 94.2921 19.2143 94.1913 19.4538C94.0905 19.6934 94.0377 19.9508 94.0363 20.211C94.0363 20.4723 94.0879 20.731 94.1881 20.972C94.2882 21.213 94.4348 21.4315 94.6196 21.6148C94.8043 21.7982 95.0235 21.9428 95.2642 22.0399C95.5049 22.1371 95.7622 22.1849 96.0215 22.1808ZM95.6065 20.3654H96.0068L96.5914 21.3427H96.9763L96.3296 20.3499C96.4088 20.349 96.4869 20.3321 96.5594 20.3002C96.632 20.2684 96.6975 20.2223 96.7521 20.1645C96.8066 20.1067 96.8492 20.0383 96.8771 19.9637C96.9051 19.889 96.9178 19.8095 96.9147 19.7298C96.9147 19.2796 96.6529 19.078 96.1139 19.078H95.2522V21.3427H95.591L95.6065 20.3654ZM95.6065 20.0705V19.3729H96.0685C96.2988 19.3729 96.5584 19.4194 96.5584 19.6981C96.5584 20.0395 96.2966 20.0705 96.0194 20.0705H95.6065Z" fill="#002959"/>
<path d="M94.3719 31.1583H3.6281C1.62436 31.1583 0 32.7954 0 34.815V44.3437C0 46.3633 1.62436 48.0004 3.6281 48.0004H94.3719C96.3756 48.0004 98 46.3633 98 44.3437V34.815C98 32.7954 96.3756 31.1583 94.3719 31.1583Z" fill="#002959"/>
<path d="M9.33529 39.5785C9.32171 39.0548 9.41419 38.5338 9.60685 38.0472C9.79951 37.5606 10.0883 37.1186 10.4559 36.7482C10.8235 36.3777 11.2621 36.0865 11.745 35.8924C12.2278 35.6983 12.7448 35.6055 13.2644 35.6193C13.9135 35.6106 14.5538 35.7712 15.1231 36.0857C15.6924 36.4002 16.1713 36.8579 16.5132 37.4141L15.2286 38.1647C15.0295 37.821 14.7417 37.5381 14.3956 37.3465C14.0495 37.1549 13.6583 37.0618 13.2637 37.0768C12.9351 37.061 12.6069 37.1154 12.3004 37.236C11.9939 37.3565 11.716 37.5408 11.4848 37.7768C11.2537 38.0128 11.0745 38.2952 10.9588 38.6057C10.8432 38.9161 10.7938 39.2475 10.8137 39.5785C10.7949 39.9088 10.8452 40.2395 10.9614 40.5489C11.0776 40.8583 11.2569 41.1394 11.4879 41.3743C11.719 41.6093 11.9965 41.7926 12.3024 41.9124C12.6084 42.0322 12.9359 42.0859 13.2637 42.0699C13.6572 42.0858 14.0476 41.9939 14.3935 41.8043C14.7395 41.6146 15.028 41.3339 15.2286 40.9923L16.5132 41.7429C16.1732 42.301 15.6947 42.76 15.125 43.0747C14.5553 43.3895 13.914 43.5494 13.2644 43.5381C12.745 43.5509 12.2285 43.4569 11.7462 43.2625C11.2638 43.068 10.8257 42.777 10.4583 42.4068C10.0909 42.0366 9.80191 41.5949 9.6089 41.1087C9.41588 40.6226 9.32272 40.102 9.33529 39.5785Z" fill="white"/>
<path d="M17.4436 39.5787C17.4379 39.0579 17.5353 38.5412 17.7302 38.0588C17.9251 37.5764 18.2135 37.1381 18.5785 36.7694C18.9436 36.4007 19.3779 36.1091 19.8562 35.9116C20.3344 35.7142 20.8469 35.6148 21.3637 35.6195C21.8809 35.6149 22.3936 35.7139 22.8724 35.9113C23.3511 36.1086 23.7861 36.4001 24.1519 36.7687C24.5176 37.1373 24.8069 37.5757 25.0028 38.0581C25.1987 38.5406 25.2971 39.0575 25.2926 39.5787C25.2962 40.0998 25.1969 40.6166 25.0007 41.0986C24.8045 41.5807 24.5154 42.0186 24.1498 42.387C23.7843 42.7555 23.3496 43.0471 22.8713 43.2448C22.393 43.4426 21.8806 43.5426 21.3637 43.539C20.8471 43.5426 20.335 43.4423 19.8572 43.2445C19.3794 43.0466 18.9454 42.7549 18.5806 42.3863C18.2157 42.0178 17.9273 41.58 17.7321 41.0979C17.5369 40.6159 17.4388 40.0993 17.4436 39.5787ZM23.801 39.5787C23.8131 39.2506 23.7585 38.9234 23.6407 38.6172C23.5229 38.3111 23.3444 38.0323 23.1161 37.798C22.8877 37.5638 22.6142 37.3791 22.3125 37.2551C22.0108 37.1311 21.6872 37.0706 21.3614 37.077C21.0357 37.0706 20.7121 37.1311 20.4104 37.2551C20.1087 37.3791 19.8352 37.5638 19.6068 37.798C19.3784 38.0323 19.1999 38.3111 19.0822 38.6172C18.9644 38.9234 18.91 39.2506 18.922 39.5787C18.9111 39.9061 18.9664 40.2324 19.0847 40.5374C19.2031 40.8425 19.3818 41.1201 19.6101 41.3532C19.8384 41.5863 20.1115 41.7701 20.4126 41.8934C20.7137 42.0166 21.0365 42.0768 21.3614 42.0701C21.6864 42.0769 22.0093 42.0169 22.3104 41.8937C22.6116 41.7705 22.8847 41.5867 23.113 41.3535C23.3413 41.1204 23.52 40.8426 23.6383 40.5374C23.7566 40.2323 23.812 39.9061 23.801 39.5787Z" fill="white"/>
<path d="M26.426 39.5787C26.4203 39.0579 26.5177 38.5412 26.7126 38.0588C26.9075 37.5764 27.1959 37.1381 27.561 36.7694C27.926 36.4007 28.3604 36.1091 28.8386 35.9116C29.3168 35.7142 29.8293 35.6148 30.3461 35.6195C30.8633 35.615 31.3761 35.7142 31.8548 35.9116C32.3335 36.109 32.7684 36.4005 33.1341 36.769C33.4999 37.1376 33.7891 37.5757 33.985 38.0581C34.1809 38.5406 34.2796 39.0575 34.2752 39.5787C34.2787 40.0998 34.1795 40.6166 33.9833 41.0986C33.7871 41.5807 33.4978 42.0186 33.1322 42.387C32.7667 42.7555 32.332 43.0471 31.8538 43.2448C31.3755 43.4426 30.863 43.5426 30.3461 43.539C29.8295 43.5426 29.3174 43.4423 28.8396 43.2445C28.3618 43.0466 27.9278 42.7549 27.563 42.3863C27.1982 42.0178 26.9099 41.58 26.7147 41.0979C26.5195 40.6159 26.4213 40.0993 26.426 39.5787ZM32.7841 39.5787C32.7961 39.2506 32.7415 38.9234 32.6236 38.6172C32.5058 38.3111 32.3274 38.0326 32.099 37.7984C31.8706 37.5642 31.5972 37.3795 31.2956 37.2555C30.9939 37.1314 30.6704 37.0707 30.3447 37.077C30.019 37.0706 29.6952 37.1311 29.3935 37.2551C29.0918 37.3791 28.8185 37.5638 28.5901 37.798C28.3617 38.0323 28.1832 38.3111 28.0654 38.6172C27.9477 38.9234 27.8931 39.2506 27.9051 39.5787C27.8942 39.9061 27.9497 40.2324 28.068 40.5374C28.1863 40.8425 28.3651 41.1201 28.5934 41.3532C28.8216 41.5863 29.0946 41.7701 29.3957 41.8934C29.6968 42.0166 30.0198 42.0768 30.3447 42.0701C30.6696 42.0768 30.9924 42.0166 31.2935 41.8934C31.5947 41.7701 31.8676 41.5863 32.0959 41.3532C32.3242 41.1201 32.5031 40.8425 32.6214 40.5374C32.7397 40.2324 32.795 39.9061 32.7841 39.5787Z" fill="white"/>
<path d="M40.1255 41.9525V43.3891H35.7539V35.7737H37.2435V41.9532L40.1255 41.9525Z" fill="white"/>
<path d="M43.8613 35.771H45.4804L47.3263 41.6267L49.1617 35.771H50.7919L48.244 43.3863H46.3988L43.8613 35.771Z" fill="white"/>
<path d="M56.6212 41.9525V43.3891H51.9473V35.7737H56.5673V37.2096H53.437V38.8321H56.2978V40.2432H53.437V41.9512L56.6212 41.9525Z" fill="white"/>
<path d="M63.9632 35.771V43.3863H62.8298L59.5916 38.7298V43.3863H58.1021V35.771H59.2354L62.4743 40.4161V35.771H63.9632Z" fill="white"/>
<path d="M72.4385 39.5787C72.4573 40.0722 72.3771 40.5644 72.2027 41.0259C72.0282 41.4874 71.7631 41.9086 71.4232 42.2643C71.0833 42.6201 70.6755 42.9031 70.2245 43.0963C69.7735 43.2894 69.2886 43.3888 68.7985 43.3884H65.7969V35.7731H68.7985C69.2882 35.7727 69.7728 35.872 70.2235 36.0649C70.6742 36.2577 71.0816 36.5401 71.4215 36.8954C71.7613 37.2507 72.0266 37.6715 72.2013 38.1325C72.376 38.5935 72.4568 39.0855 72.4385 39.5787ZM71.0139 39.5787C71.0379 39.2731 70.9982 38.9657 70.8973 38.6764C70.7965 38.3872 70.6368 38.1226 70.4284 37.8993C70.22 37.676 69.9676 37.4989 69.6874 37.3798C69.4072 37.2606 69.1054 37.2022 68.8013 37.2075H67.29V41.9512H68.8013C69.1053 41.9563 69.4071 41.8973 69.6872 41.7779C69.9673 41.6585 70.2197 41.4815 70.4279 41.2581C70.6361 41.0347 70.7956 40.7698 70.8963 40.4806C70.997 40.1913 71.0366 39.8842 71.0125 39.5787H71.0139Z" fill="white"/>
<path d="M73.5828 39.5787C73.5771 39.0579 73.6745 38.5412 73.8694 38.0588C74.0642 37.5764 74.3527 37.1381 74.7177 36.7694C75.0827 36.4007 75.5169 36.1091 75.9952 35.9116C76.4734 35.7142 76.9859 35.6148 77.5027 35.6195C78.0198 35.6149 78.5328 35.7139 79.0115 35.9113C79.4902 36.1086 79.9253 36.4001 80.291 36.7687C80.6568 37.1373 80.9459 37.5757 81.1418 38.0581C81.3376 38.5406 81.4363 39.0575 81.4318 39.5787C81.4353 40.0998 81.3361 40.6166 81.1399 41.0986C80.9437 41.5807 80.6544 42.0186 80.2888 42.387C79.9233 42.7555 79.4888 43.0471 79.0105 43.2448C78.5322 43.4426 78.0196 43.5426 77.5027 43.539C76.9861 43.5426 76.4741 43.4423 75.9964 43.2445C75.5186 43.0466 75.0846 42.7549 74.7197 42.3863C74.3549 42.0178 74.0664 41.58 73.8712 41.0979C73.676 40.6159 73.578 40.0993 73.5828 39.5787ZM79.9402 39.5787C79.9522 39.2506 79.8976 38.9234 79.7799 38.6172C79.6621 38.3111 79.4836 38.0323 79.2552 37.798C79.0268 37.5638 78.7534 37.3791 78.4517 37.2551C78.15 37.1311 77.8264 37.0706 77.5006 37.077C77.1748 37.0706 76.8513 37.1311 76.5496 37.2551C76.2479 37.3791 75.9744 37.5638 75.746 37.798C75.5176 38.0323 75.3391 38.3111 75.2213 38.6172C75.1036 38.9234 75.049 39.2506 75.061 39.5787C75.0501 39.9061 75.1056 40.2324 75.2239 40.5374C75.3422 40.8425 75.5209 41.1201 75.7492 41.3532C75.9775 41.5863 76.2507 41.7701 76.5518 41.8934C76.8529 42.0166 77.1757 42.0768 77.5006 42.0701C77.8258 42.0772 78.149 42.0171 78.4505 41.8941C78.7519 41.771 79.0253 41.5874 79.2538 41.3542C79.4824 41.1211 79.6614 40.8434 79.7799 40.5381C79.8984 40.2329 79.9538 39.9063 79.9429 39.5787H79.9402Z" fill="white"/>
<path d="M85.5329 40.7427H84.3997V43.387H82.9102V35.7717H85.9327C86.2623 35.7707 86.5888 35.8351 86.8936 35.9615C87.1985 36.0878 87.4756 36.2738 87.7092 36.5082C87.9427 36.7426 88.1283 37.0207 88.255 37.3274C88.3817 37.6341 88.4472 37.9632 88.4478 38.2954C88.4391 38.7667 88.2974 39.2255 88.0393 39.6186C87.7812 40.0117 87.4174 40.3227 86.9904 40.515L88.6635 43.387H87.0534L85.5329 40.7427ZM84.3997 39.4271H85.9327C86.2169 39.4135 86.4841 39.2872 86.6762 39.0757C86.8684 38.8642 86.9698 38.5847 86.9582 38.2982C86.9642 38.1567 86.9423 38.0154 86.894 37.8824C86.8456 37.7494 86.7717 37.6272 86.6764 37.5231C86.5811 37.419 86.4664 37.335 86.3387 37.2757C86.2111 37.2165 86.0731 37.1832 85.9327 37.1779H84.3997V39.4271Z" fill="white"/>
</g>
<defs>
<clipPath id="clip0_1110_138756">
<rect width="98" height="48" fill="white"/>
</clipPath>
</defs>
</svg>
