<svg width="59" height="66" viewBox="0 0 59 66" fill="none" xmlns="http://www.w3.org/2000/svg">
<path d="M4.88818 51.3845L29.9751 64.1011L54.1117 51.3845V1.64777H4.88818V51.3845Z" fill="white"/>
<path d="M54.6212 1.83612L4.38428 52.2686L30.4216 65.116L54.6212 52.776V1.83612Z" fill="#F2F3F2"/>
<path d="M3.23975 18.2249V52.4568L4.12708 52.9015L29.214 65.6181L29.9753 66L30.7367 65.6181L54.9363 52.9015L55.8236 52.4568V0H3.23975V18.2249ZM4.89366 51.51V1.64778H54.1802V51.51L29.9806 64.2267L4.89366 51.51Z" fill="#DCDEDC"/>
<path d="M29.5341 2.46905C29.7914 2.45859 30.0434 2.47951 30.2955 2.53182L29.5341 3.98605C28.379 3.91805 27.3814 4.79686 27.3132 5.94769C27.2449 7.09852 28.127 8.09242 29.2821 8.16042H29.5341C30.0434 8.16042 30.537 7.97733 30.9308 7.65301L31.7551 9.04447C31.104 9.49957 30.327 9.74019 29.5341 9.74019C27.5179 9.82912 25.8115 8.27027 25.7223 6.26155C25.633 4.25283 27.1977 2.55275 29.2138 2.46382H29.5289L29.5341 2.46905ZM32.1384 5.57105L33.0887 7.15083L32.1384 8.66783L31.251 7.15083H29.4081L30.3585 5.57105H32.1384ZM30.6157 5.00087C30.6157 4.75501 30.6787 4.51439 30.8048 4.30514C30.9623 4.10636 31.1565 3.93374 31.3771 3.79773L31.5031 3.73496C31.7551 3.60942 31.8181 3.54664 31.8181 3.4211C31.8181 3.29555 31.6291 3.17001 31.5031 3.17001C31.251 3.17001 31.0253 3.31648 30.9308 3.55187L30.6157 3.23801C30.6997 3.09677 30.81 2.966 30.9308 2.85615C31.104 2.75676 31.3036 2.70968 31.5031 2.7306C31.7078 2.7306 31.9126 2.79337 32.0754 2.91892C32.2224 3.0497 32.3116 3.23278 32.3274 3.42633C32.3222 3.76112 32.0859 4.04882 31.7551 4.12206L31.5661 4.2476C31.3771 4.37315 31.251 4.43592 31.1828 4.62947H32.3274V5.07411L30.6105 5.01133L30.6157 5.00087ZM29.5341 12.9102L35.567 9.49433V0H23.4383V9.42633L29.5341 12.905V12.9102ZM57.0363 35.3095H2.03195L0 39.7402L2.03195 44.1709H57.0311L59 39.7402L57.0311 35.3095H57.0363Z" fill="#FF492C"/>
<path d="M11.8715 32.4638C11.8347 32.4638 11.8032 32.4533 11.777 32.4272C11.7507 32.401 11.7402 32.3644 11.7402 32.3278V24.6329C11.7402 24.5963 11.756 24.5597 11.777 24.5335C11.8032 24.5074 11.8347 24.4969 11.8715 24.4969H13.2104C13.2471 24.4969 13.2786 24.5074 13.3049 24.5335C13.3311 24.5597 13.3469 24.5963 13.3469 24.6329V31.0305C13.3469 31.0567 13.3626 31.0828 13.3889 31.088C13.3889 31.088 13.3994 31.088 13.4046 31.088H17.1378C17.2113 31.088 17.2743 31.1351 17.2795 31.2084C17.2795 31.2136 17.2795 31.2188 17.2795 31.2293V32.3278C17.2795 32.401 17.2323 32.4638 17.1588 32.469C17.1535 32.469 17.1483 32.469 17.1378 32.469H11.8662L11.8715 32.4638ZM23.3754 28.9329C23.4226 29.2519 23.4384 29.5763 23.4174 29.9006C23.4279 29.9686 23.3754 30.0314 23.3071 30.0418C23.2966 30.0418 23.2861 30.0418 23.2756 30.0418H19.742C19.6948 30.0418 19.679 30.0628 19.7 30.0994C19.721 30.2563 19.763 30.408 19.8208 30.5545C20.0518 30.9939 20.5348 31.245 21.0336 31.1874C21.4957 31.1979 21.9262 30.9782 22.1888 30.6016C22.2098 30.5492 22.2675 30.5179 22.3253 30.5388C22.3463 30.544 22.362 30.5597 22.3778 30.5754L23.1969 31.3862C23.2284 31.4124 23.2494 31.449 23.2546 31.4856C23.2494 31.5222 23.2336 31.5536 23.2126 31.5798C22.9501 31.8936 22.6193 32.1447 22.2413 32.3016C21.8317 32.4743 21.3854 32.558 20.9391 32.5527C20.3511 32.5737 19.7735 32.4167 19.2747 32.1081C18.8232 31.8099 18.4766 31.3757 18.2981 30.8683C18.1196 30.3923 18.0408 29.8849 18.0566 29.3775C18.0513 29.0009 18.1091 28.6295 18.2299 28.279C18.3926 27.7611 18.7129 27.3112 19.1487 26.9869C19.6055 26.6678 20.1516 26.5004 20.7134 26.5109C21.3907 26.4795 22.047 26.7149 22.551 27.17C23.0288 27.6408 23.3281 28.2685 23.3911 28.9329H23.3754ZM20.7134 27.8971C20.2776 27.8657 19.8785 28.1482 19.763 28.5667C19.7315 28.687 19.7053 28.8073 19.6843 28.9329C19.6843 28.959 19.7 28.9852 19.7263 28.9904C19.7263 28.9904 19.7368 28.9904 19.742 28.9904H21.7162C21.7635 28.9904 21.7792 28.9695 21.7582 28.9329C21.7215 28.7131 21.7005 28.6085 21.7005 28.619C21.6427 28.4097 21.5167 28.2214 21.3434 28.0854C21.1597 27.9546 20.9339 27.8866 20.7081 27.8971H20.7134ZM26.7042 26.5161C27.161 26.5056 27.6125 26.5946 28.0326 26.7777C28.3949 26.9241 28.7099 27.17 28.9409 27.4786C29.1509 27.7663 29.2664 28.1116 29.2664 28.4673V32.3278C29.2664 32.3644 29.2507 32.401 29.2297 32.4272C29.2034 32.4533 29.1719 32.4638 29.1352 32.4638H27.7963C27.7595 32.4638 27.728 32.4533 27.7018 32.4272C27.6755 32.401 27.6598 32.3644 27.6598 32.3278V31.9564C27.6598 31.9564 27.6545 31.925 27.6388 31.9145C27.623 31.9041 27.6073 31.9145 27.5968 31.9355C27.2135 32.3801 26.6412 32.6155 26.0531 32.5632C25.5386 32.5893 25.0293 32.4376 24.6092 32.1342C24.2312 31.8204 24.0212 31.3444 24.0579 30.8579C24.0317 30.3295 24.2627 29.8221 24.6827 29.4978C25.1973 29.1473 25.8169 28.9747 26.4417 29.0165H27.602C27.6283 29.0165 27.6545 29.0009 27.6598 28.9747C27.6598 28.9747 27.6598 28.9642 27.6598 28.959V28.7079C27.6703 28.4882 27.5863 28.2737 27.4288 28.122C27.2345 27.9703 26.9877 27.8919 26.7409 27.9128C26.5362 27.9076 26.3367 27.9494 26.1581 28.0383C26.0111 28.1116 25.9009 28.2371 25.8536 28.3941C25.8326 28.4777 25.7854 28.5144 25.7066 28.5091L24.3205 28.3261C24.226 28.3104 24.1839 28.2737 24.1944 28.2267C24.226 27.9023 24.3572 27.5989 24.5777 27.3583C24.8245 27.0863 25.129 26.8823 25.4756 26.7567C25.8694 26.605 26.2894 26.5266 26.7147 26.537L26.7042 26.5161ZM26.4732 31.3548C26.7724 31.3653 27.0665 31.2711 27.3028 31.0933C27.5233 30.9416 27.6493 30.6905 27.644 30.4237V30.0104C27.644 29.9843 27.6283 29.9581 27.602 29.9529C27.602 29.9529 27.5915 29.9529 27.5863 29.9529H26.7672C26.4837 29.9372 26.2054 30.0052 25.9586 30.1465C25.7696 30.2615 25.6593 30.4708 25.6646 30.6905C25.6541 30.8736 25.7328 31.0567 25.8799 31.1717C26.0479 31.2973 26.2526 31.3601 26.4627 31.3496L26.4732 31.3548ZM34.0444 24.6277C34.0444 24.5911 34.0602 24.5545 34.0812 24.5283C34.1074 24.5022 34.1389 24.4917 34.1757 24.4917H35.5146C35.5513 24.4917 35.5828 24.5022 35.6091 24.5283C35.6353 24.5545 35.6458 24.5911 35.6458 24.6277V32.3226C35.6458 32.3592 35.6301 32.3958 35.6091 32.422C35.5828 32.4481 35.5513 32.4586 35.5146 32.4586H34.1757C34.1389 32.4586 34.1074 32.4481 34.0812 32.422C34.0549 32.3958 34.0444 32.3592 34.0444 32.3226V31.9512C34.0444 31.9512 34.0339 31.9198 34.0182 31.9145C34.0024 31.9145 33.9867 31.9145 33.9762 31.925C33.6664 32.3383 33.1781 32.5684 32.6635 32.5527C32.1647 32.5632 31.6817 32.4063 31.2879 32.1081C30.8941 31.7995 30.6001 31.3757 30.4583 30.8945C30.3218 30.4446 30.2588 29.9843 30.2693 29.5135C30.2588 29.0375 30.327 28.5562 30.4741 28.1011C30.6316 27.6408 30.9204 27.238 31.3036 26.9451C31.7079 26.6469 32.2015 26.5004 32.7003 26.5161C33.1938 26.49 33.6716 26.7044 33.9814 27.0863C33.9919 27.1124 34.0077 27.1177 34.0234 27.1124C34.0392 27.102 34.0497 27.0863 34.0497 27.0706V24.6329L34.0444 24.6277ZM33.8029 30.6852C33.9709 30.3243 34.0497 29.932 34.0339 29.5344C34.0549 29.1212 33.9656 28.7079 33.7819 28.3365C33.6349 28.054 33.3356 27.8866 33.0206 27.8919C32.6898 27.8762 32.3747 28.0488 32.2067 28.3365C31.9967 28.7027 31.9022 29.1212 31.9232 29.5449C31.9074 29.9372 31.9915 30.3295 32.1647 30.6852C32.3275 30.9991 32.6583 31.1874 33.0101 31.177C33.3513 31.177 33.6611 30.9886 33.8081 30.6852H33.8029ZM42.0672 28.9329C42.1144 29.2519 42.1302 29.5763 42.1092 29.9006C42.1197 29.9686 42.0672 30.0314 41.9989 30.0418C41.9884 30.0418 41.9779 30.0418 41.9674 30.0418H38.4338C38.3866 30.0418 38.3708 30.0628 38.3918 30.0994C38.4128 30.2563 38.4548 30.408 38.5126 30.5545C38.7436 30.9939 39.2267 31.245 39.7255 31.1874C40.1875 31.1979 40.618 30.9782 40.8806 30.6016C40.9016 30.5492 40.9593 30.5179 41.0171 30.5388C41.0381 30.544 41.0538 30.5597 41.0696 30.5754L41.8887 31.3862C41.9202 31.4124 41.9412 31.449 41.9464 31.4856C41.9412 31.5222 41.9254 31.5536 41.9044 31.5798C41.6419 31.8936 41.3111 32.1447 40.9331 32.3016C40.5235 32.4743 40.0772 32.558 39.631 32.5527C39.0429 32.5737 38.4653 32.4167 37.9665 32.1081C37.515 31.8099 37.1685 31.3757 36.9899 30.8683C36.8114 30.3923 36.7327 29.8849 36.7484 29.3775C36.7432 29.0009 36.8009 28.6295 36.9217 28.279C37.0845 27.7611 37.4047 27.3112 37.8405 26.9869C38.2973 26.6678 38.8434 26.5004 39.4052 26.5109C40.0825 26.4795 40.7388 26.7149 41.2429 27.17C41.7207 27.6408 42.0199 28.2685 42.0829 28.9329H42.0672ZM39.4052 27.8971C38.9694 27.8657 38.5703 28.1482 38.4548 28.5667C38.4233 28.687 38.3971 28.8073 38.3761 28.9329C38.3761 28.959 38.3918 28.9852 38.4181 28.9904C38.4181 28.9904 38.4286 28.9904 38.4338 28.9904H40.408C40.4553 28.9904 40.471 28.9695 40.45 28.9329C40.4133 28.7131 40.3923 28.6085 40.3923 28.619C40.3345 28.4097 40.2085 28.2214 40.0352 28.0854C39.8515 27.9546 39.6257 27.8866 39.3999 27.8971H39.4052ZM46.0366 26.5318C46.2623 26.5213 46.4881 26.5737 46.6824 26.6887C46.7454 26.7201 46.7769 26.7934 46.7506 26.8614L46.5091 28.1639C46.5091 28.2528 46.4514 28.279 46.3516 28.2424C46.2203 28.2005 46.0891 28.1848 45.9526 28.1848C45.8686 28.1848 45.7846 28.1953 45.7058 28.211C45.4433 28.2267 45.1965 28.3313 45.0075 28.5091C44.8132 28.6975 44.7082 28.9538 44.7239 29.2258V32.333C44.7239 32.4063 44.6767 32.469 44.6032 32.4743C44.5979 32.4743 44.5927 32.4743 44.5822 32.4743H43.2486C43.175 32.4743 43.112 32.4272 43.1068 32.3539C43.1068 32.3487 43.1068 32.3435 43.1068 32.333V26.7515C43.1068 26.7149 43.1173 26.6835 43.1435 26.6573C43.1698 26.6312 43.2066 26.6207 43.2433 26.6207H44.5769C44.6137 26.6207 44.6504 26.6364 44.6767 26.6573C44.7029 26.6835 44.7135 26.7149 44.7135 26.7515V27.1857C44.7135 27.1857 44.7187 27.2171 44.7344 27.2275C44.7449 27.2328 44.7607 27.2275 44.7712 27.2223C44.7712 27.2223 44.7712 27.2223 44.7712 27.2171C45.039 26.7829 45.5168 26.5266 46.0313 26.5318H46.0366Z" fill="#252530"/>
<path d="M19.5635 42.2092C19.5215 42.2092 19.4848 42.1883 19.4743 42.1465L18.3191 37.8622V37.8361C18.3139 37.7995 18.3349 37.7785 18.3822 37.7785H19.007C19.049 37.7785 19.0857 37.7995 19.0962 37.8413L19.8208 40.7289C19.8208 40.7289 19.8313 40.7498 19.8418 40.7498C19.8523 40.7498 19.8575 40.7445 19.8628 40.7289L20.5559 37.8413C20.5664 37.8047 20.5979 37.7785 20.6399 37.7785H21.2489C21.2909 37.7785 21.3277 37.7995 21.3382 37.8413L22.0733 40.7341C22.0733 40.7341 22.0838 40.755 22.0943 40.755C22.1048 40.755 22.11 40.7498 22.1153 40.7341L22.8241 37.8413C22.8346 37.7995 22.8713 37.7733 22.9133 37.7785H23.5014C23.5592 37.7785 23.5854 37.8047 23.5697 37.8622L22.4723 42.1465C22.4618 42.1883 22.425 42.2145 22.383 42.2092H21.795C21.753 42.2092 21.7162 42.1883 21.7057 42.1465L20.9602 39.1282C20.9602 39.1282 20.9497 39.1072 20.9392 39.102C20.9287 39.102 20.9234 39.1125 20.9182 39.1282L20.2093 42.1465C20.1988 42.1831 20.1673 42.2092 20.1253 42.2092H19.5688H19.5635ZM24.268 42.2092C24.268 42.2092 24.226 42.1988 24.2102 42.1831C24.1997 42.1674 24.1892 42.1517 24.1892 42.1308V37.8518C24.1892 37.8518 24.1945 37.8152 24.2102 37.7995C24.226 37.7838 24.247 37.7733 24.268 37.7733H24.8508C24.8928 37.7785 24.919 37.8099 24.9295 37.8518V42.1308C24.9243 42.1726 24.8928 42.1988 24.8508 42.2092H24.268ZM28.4421 37.857C28.4421 37.857 28.4474 37.8204 28.4631 37.8047C28.4789 37.789 28.4999 37.7785 28.5209 37.7785H29.1037C29.1457 37.7838 29.172 37.8152 29.1825 37.857V42.136C29.1772 42.1779 29.1457 42.204 29.1037 42.2145H28.5366C28.4999 42.2145 28.4631 42.1988 28.4474 42.1622L26.6202 39.1752C26.6202 39.1752 26.6045 39.1543 26.594 39.1543C26.5835 39.1543 26.5835 39.1648 26.5835 39.1857L26.594 42.136C26.5887 42.1779 26.5572 42.204 26.5152 42.2145H25.9324C25.9324 42.2145 25.8904 42.204 25.8746 42.1883C25.8641 42.1726 25.8536 42.1569 25.8536 42.136V37.857C25.8536 37.857 25.8589 37.8204 25.8746 37.8047C25.8904 37.789 25.9114 37.7785 25.9324 37.7785H26.4994C26.5362 37.7785 26.573 37.7942 26.5887 37.8309L28.4106 40.8178C28.4106 40.8178 28.4264 40.8335 28.4369 40.8282C28.4474 40.8282 28.4474 40.8178 28.4474 40.8021V37.8518H28.4421V37.857ZM33.0258 37.7785C33.0678 37.7838 33.0941 37.8152 33.1046 37.857V38.3435C33.0993 38.3853 33.0678 38.4115 33.0258 38.422H31.855C31.855 38.422 31.8235 38.4324 31.8235 38.4429C31.8235 38.4429 31.8235 38.4481 31.8235 38.4534V42.136C31.8235 42.136 31.8182 42.1726 31.8025 42.1883C31.7867 42.204 31.7657 42.2145 31.7447 42.2145H31.1619C31.1199 42.2092 31.0936 42.1779 31.0831 42.136V38.4534C31.0831 38.4534 31.0726 38.422 31.0621 38.422C31.0621 38.422 31.0569 38.422 31.0516 38.422H29.928C29.928 38.422 29.886 38.4115 29.8703 38.3958C29.8598 38.3801 29.8493 38.3644 29.8493 38.3435V37.857C29.8493 37.857 29.8545 37.8204 29.8703 37.8047C29.886 37.789 29.907 37.7785 29.928 37.7785H33.0206H33.0258ZM36.7904 38.333C36.7852 38.3749 36.7537 38.401 36.7117 38.4115H34.5485C34.5485 38.4115 34.517 38.422 34.517 38.4324C34.517 38.4324 34.517 38.4377 34.517 38.4429V39.6251C34.517 39.6251 34.5275 39.6565 34.538 39.6565C34.538 39.6565 34.5432 39.6565 34.5485 39.6565H36.0029C36.0396 39.6513 36.0764 39.6774 36.0816 39.714C36.0816 39.7193 36.0816 39.7245 36.0816 39.735V40.2162C36.0869 40.2528 36.0606 40.2894 36.0239 40.2947C36.0186 40.2947 36.0134 40.2947 36.0029 40.2947H34.5485C34.5485 40.2947 34.517 40.3051 34.517 40.3156C34.517 40.3156 34.517 40.3208 34.517 40.3261V41.5449C34.517 41.5449 34.5275 41.5763 34.538 41.5763C34.538 41.5763 34.5432 41.5763 34.5485 41.5763H36.7117C36.7537 41.5815 36.7799 41.6129 36.7904 41.6547V42.136C36.7852 42.1779 36.7537 42.204 36.7117 42.2145H33.8554C33.8554 42.2145 33.8134 42.204 33.7977 42.1883C33.7872 42.1726 33.7767 42.1569 33.7767 42.136V37.857C33.7767 37.857 33.7819 37.8204 33.7977 37.8047C33.8134 37.789 33.8344 37.7785 33.8554 37.7785H36.7117C36.7537 37.7838 36.7799 37.8152 36.7904 37.857V38.3383V38.333ZM40.0353 42.204C39.9985 42.204 39.9618 42.1831 39.946 42.1465L39.1059 40.3261C39.1059 40.3261 39.0849 40.2999 39.0692 40.2999H38.3078C38.3078 40.2999 38.2763 40.3104 38.2763 40.3208C38.2763 40.3208 38.2763 40.3261 38.2763 40.3313V42.1308C38.2711 42.1726 38.2396 42.1988 38.1976 42.2092H37.6148C37.6148 42.2092 37.5728 42.1988 37.557 42.1831C37.5465 42.1674 37.536 42.1517 37.536 42.1308V37.8518C37.536 37.8518 37.5413 37.8152 37.557 37.7995C37.5728 37.7838 37.5938 37.7733 37.6148 37.7733H39.3632C39.5995 37.7733 39.8357 37.8204 40.051 37.9302C40.2453 38.0349 40.408 38.1918 40.5131 38.3853C40.6233 38.5946 40.6811 38.8248 40.6758 39.0602C40.6863 39.3269 40.6023 39.5833 40.4448 39.803C40.2925 40.0122 40.072 40.1639 39.82 40.2319C39.8095 40.2319 39.8042 40.2319 39.799 40.2424C39.799 40.2528 39.799 40.2581 39.799 40.2685L40.6968 42.1098C40.6968 42.1098 40.7073 42.136 40.7073 42.1465C40.7073 42.1778 40.6863 42.1988 40.6391 42.1988H40.03L40.0353 42.204ZM38.3078 38.4063C38.3078 38.4063 38.2763 38.4167 38.2763 38.4272C38.2763 38.4272 38.2763 38.4324 38.2763 38.4377V39.6983C38.2763 39.6983 38.2868 39.7297 38.2973 39.7297C38.2973 39.7297 38.3026 39.7297 38.3078 39.7297H39.2582C39.442 39.735 39.6205 39.6722 39.7517 39.5466C39.8777 39.4211 39.946 39.2485 39.9355 39.0706C39.9408 38.8928 39.8777 38.7201 39.7517 38.5894C39.6205 38.4638 39.442 38.3958 39.2582 38.4063H38.3078Z" fill="white"/>
<path d="M21.3589 53.6339C21.3589 53.6339 21.3432 53.66 21.3484 53.6705C21.3589 53.6809 21.3694 53.6914 21.3852 53.6914H23.8792C23.9054 53.6914 23.9369 53.7019 23.9579 53.7228C23.9842 53.7385 23.9947 53.7699 23.9947 53.8012V54.6958C23.9947 54.7271 23.9789 54.7533 23.9579 54.7742C23.9369 54.7951 23.9107 54.8056 23.8792 54.8056H19.7365C19.705 54.8056 19.6735 54.7951 19.6525 54.7742C19.6315 54.7533 19.621 54.7271 19.621 54.6958V53.8483C19.621 53.796 19.642 53.7437 19.6787 53.7071C19.978 53.4141 20.2878 53.0951 20.5976 52.7498C20.9074 52.4046 21.1069 52.1901 21.1856 52.1064C21.3537 51.9024 21.5269 51.7088 21.7054 51.5257C22.1202 51.1648 22.4143 50.6835 22.5455 50.1552C22.5508 49.9512 22.4668 49.7577 22.3145 49.6216C21.9627 49.3496 21.4744 49.3496 21.1226 49.6216C20.9651 49.7629 20.8811 49.9617 20.8864 50.1709V50.4011C20.8864 50.4586 20.8391 50.5057 20.7761 50.5109H19.6892C19.663 50.5109 19.6315 50.5005 19.6105 50.4795C19.5842 50.4638 19.5737 50.4325 19.5737 50.4011V49.9721C19.5895 49.653 19.6997 49.3496 19.8888 49.0933C20.083 48.837 20.3456 48.633 20.6448 48.5127C20.9809 48.3714 21.3484 48.3034 21.7107 48.3087C22.1045 48.2982 22.493 48.3819 22.8501 48.5545C23.1546 48.701 23.4119 48.9259 23.5956 49.2084C23.7741 49.4804 23.8634 49.7995 23.8634 50.1238C23.8634 50.4011 23.7899 50.6679 23.6691 50.9137C23.5116 51.2276 23.3173 51.5205 23.0916 51.7873C22.9026 52.0227 22.6978 52.2581 22.4773 52.4935C22.2567 52.7289 21.9312 53.0637 21.4954 53.4978L21.3537 53.6391L21.3589 53.6339ZM26.9875 54.8998C26.3994 54.9311 25.8218 54.7271 25.386 54.3348C24.9818 53.9268 24.7665 53.3723 24.798 52.7969V50.3749C24.7717 49.81 24.9818 49.2607 25.386 48.8631C25.8218 48.4708 26.3994 48.2668 26.9875 48.2982C27.5755 48.2668 28.1531 48.4708 28.5941 48.8631C28.9984 49.2607 29.2137 49.81 29.1822 50.3749V52.7969C29.2137 53.3671 28.9984 53.9268 28.5941 54.3348C28.1531 54.7271 27.5755 54.9259 26.9875 54.8998ZM26.9875 53.7908C27.2342 53.8012 27.4705 53.7123 27.6438 53.5397C27.817 53.3566 27.9063 53.1107 27.8905 52.8649V50.3383C27.901 50.0924 27.8118 49.8466 27.6438 49.6687C27.2762 49.3287 26.7092 49.3287 26.3416 49.6687C26.1736 49.8518 26.0844 50.0924 26.0949 50.3383V52.8649C26.0844 53.116 26.1736 53.3566 26.3416 53.5397C26.5097 53.7123 26.7459 53.8065 26.9875 53.7908ZM31.7654 53.6339C31.7654 53.6339 31.7497 53.66 31.7602 53.6705C31.7602 53.6809 31.7759 53.6914 31.7969 53.6914H34.2909C34.3487 53.6914 34.3959 53.7385 34.4012 53.8012V54.6958C34.4012 54.7533 34.3539 54.8004 34.2909 54.8056H30.143C30.0853 54.8056 30.038 54.7585 30.0328 54.6958V53.8483C30.0328 53.796 30.0485 53.7489 30.0853 53.7071C30.3898 53.4141 30.6996 53.0951 31.0041 52.7498C31.3139 52.4046 31.5081 52.1901 31.5922 52.1064C31.7654 51.9024 31.9439 51.7088 32.1172 51.5257C32.532 51.1648 32.826 50.6835 32.9573 50.1552C32.9625 49.9512 32.8785 49.7577 32.7263 49.6216C32.5582 49.4804 32.343 49.4124 32.1225 49.4176C31.9072 49.4072 31.6919 49.4804 31.5239 49.6216C31.3716 49.7629 31.2876 49.9617 31.2929 50.1709V50.4011C31.2929 50.4272 31.2824 50.4586 31.2614 50.4795C31.2404 50.5005 31.2089 50.5109 31.1774 50.5109H30.0905C30.0328 50.5109 29.9855 50.4638 29.9802 50.4011V49.9721C29.9907 49.653 30.101 49.3496 30.29 49.0933C30.4895 48.837 30.7521 48.633 31.0513 48.5127C31.3874 48.3767 31.7497 48.3034 32.112 48.3087C32.5057 48.2982 32.8943 48.3819 33.2513 48.5545C33.5558 48.6958 33.8184 48.9259 34.0021 49.2084C34.1754 49.4856 34.2647 49.7995 34.2647 50.1238C34.2647 50.3958 34.1964 50.6679 34.0756 50.9137C33.9181 51.2276 33.7186 51.5205 33.4928 51.7873C33.3038 52.0227 33.099 52.2581 32.8785 52.4935C32.658 52.7289 32.3325 53.0637 31.8967 53.4978L31.7549 53.6391L31.7654 53.6339ZM39.0426 51.735C39.1686 52.0436 39.2316 52.3732 39.2264 52.7027C39.2264 53.0166 39.1739 53.3252 39.0636 53.6182C38.9271 54 38.6646 54.3191 38.3181 54.5336C37.9505 54.7638 37.52 54.8788 37.0842 54.8684C36.6484 54.8788 36.2231 54.7585 35.8608 54.5179C35.5143 54.2877 35.2465 53.9582 35.0995 53.5711C35.0102 53.32 34.963 53.0637 34.9525 52.7969C34.9472 52.7446 34.9787 52.6975 35.0312 52.687C35.0417 52.687 35.047 52.687 35.0575 52.687H36.1496C36.2021 52.6818 36.2494 52.7132 36.2599 52.7655C36.2599 52.776 36.2599 52.7812 36.2599 52.7917C36.2756 52.9434 36.3071 53.0951 36.3596 53.2415C36.4594 53.5502 36.7534 53.7594 37.0789 53.7489C37.3887 53.7699 37.6775 53.5868 37.7878 53.2991C37.877 53.1003 37.919 52.8806 37.9138 52.6609C37.9243 52.415 37.877 52.1744 37.772 51.9547C37.6512 51.6774 37.3677 51.5048 37.0684 51.5257C36.9949 51.5257 36.9214 51.5467 36.8532 51.5833C36.7797 51.6251 36.6904 51.6827 36.5854 51.7559C36.5644 51.7716 36.5434 51.7821 36.5171 51.7821C36.4804 51.7821 36.4489 51.7611 36.4331 51.7298L35.8871 50.966C35.8871 50.966 35.8661 50.9242 35.8661 50.9033C35.8661 50.8719 35.8766 50.8352 35.9028 50.8143L37.3625 49.538C37.3625 49.538 37.3782 49.517 37.3835 49.5013C37.3835 49.4909 37.3677 49.4804 37.352 49.4804H35.1888C35.1572 49.4804 35.131 49.4699 35.1047 49.449C35.0837 49.4281 35.0732 49.4019 35.0732 49.3706V48.4761C35.0732 48.4499 35.0837 48.4185 35.1047 48.3976C35.1257 48.3767 35.1572 48.3662 35.1888 48.3662H39.0269C39.0584 48.3662 39.0899 48.3767 39.1109 48.3976C39.1319 48.4185 39.1424 48.4447 39.1424 48.4761V49.4909C39.1424 49.5432 39.1161 49.5955 39.0794 49.6321L37.8718 50.7306C37.8718 50.7306 37.856 50.7516 37.8613 50.762C37.8665 50.7725 37.877 50.7777 37.898 50.7829C38.4178 50.8771 38.8536 51.238 39.0426 51.7298V51.735Z" fill="#252530"/>
</svg>
