<svg width="58" height="66" viewBox="0 0 58 66" fill="none" xmlns="http://www.w3.org/2000/svg">
<path d="M4.8125 51.3852L29.4713 64.1042L53.1925 51.3852V1.64368H4.8125V51.3852Z" fill="white"/>
<path d="M53.6898 1.83276L4.31006 52.2675L29.9065 65.1125L53.6898 52.7717V1.83276Z" fill="#F2F3F2"/>
<path d="M3.18604 18.2277V52.4618L4.06153 52.9029L28.7203 65.6219L29.4715 66L30.2227 65.6219L54.006 52.9029L54.8815 52.4618V0H3.19121V18.2277H3.18604ZM4.80751 51.5165V1.6437H53.2496V51.5113L29.4663 64.2303L4.80751 51.5113V51.5165Z" fill="#DCDEDC"/>
<path d="M29.0311 2.46817C29.2849 2.45767 29.5336 2.47868 29.7822 2.53119L29.0311 3.98584C27.8914 3.91757 26.9175 4.79456 26.8449 5.94987C26.7776 7.10519 27.6427 8.09246 28.7824 8.16598H29.0311C29.5336 8.16598 30.0154 7.98218 30.4039 7.66184L31.2172 9.05347C30.5748 9.51034 29.8133 9.75191 29.0311 9.75191C27.047 9.84118 25.3737 8.28151 25.2856 6.27021C25.1976 4.25891 26.7362 2.5627 28.7203 2.47342H29.0311V2.46817ZM31.5902 5.56652L32.5279 7.1472L31.5902 8.66486L30.7147 7.1472H28.9067L29.8444 5.56652H31.5902ZM30.0931 4.99936C30.0931 4.75255 30.1552 4.51098 30.2796 4.30092C30.435 4.10137 30.6267 3.92807 30.8391 3.79679L30.9634 3.73377C31.212 3.60773 31.2742 3.54472 31.2742 3.41868C31.2742 3.29265 31.0877 3.16661 30.9634 3.16661C30.7147 3.16661 30.492 3.31365 30.4039 3.54472L30.0931 3.22963C30.176 3.08784 30.2847 2.96181 30.4039 2.85153C30.5748 2.75175 30.7717 2.70449 30.9634 2.72549C31.1654 2.72549 31.3675 2.78851 31.5229 2.91454C31.6679 3.04583 31.756 3.22438 31.7715 3.41868C31.7663 3.75477 31.5332 4.0436 31.212 4.11712L31.0255 4.24316C30.839 4.36919 30.7147 4.43221 30.6526 4.62126H31.7767V5.06238L30.0931 4.99936ZM29.0311 12.908L34.9627 9.48934V0H23.0373V9.43157L29.0311 12.9133V12.908ZM56.0625 35.3106H1.99964L0 39.7428L1.99964 44.175H56.0625L58 39.7428L56.0625 35.3106Z" fill="#FF492C"/>
<path d="M15.5464 32.4644C15.4895 32.4644 15.4428 32.4171 15.4428 32.3593V26.3727C15.4428 26.3149 15.4895 26.2677 15.5464 26.2677H16.5722C16.6291 26.2677 16.6758 26.3149 16.6758 26.3727V31.3511C16.6758 31.3511 16.6861 31.3931 16.7069 31.3931C16.7069 31.3931 16.712 31.3931 16.7172 31.3931H19.5768C19.5768 31.3931 19.6286 31.3983 19.6442 31.4193C19.6649 31.4403 19.6752 31.4666 19.6752 31.4929V32.3541C19.6752 32.3803 19.6649 32.4119 19.6442 32.4276C19.6286 32.4486 19.6027 32.4591 19.5768 32.4591H15.5464V32.4644ZM24.3428 29.7179C24.3791 29.9647 24.3894 30.222 24.3739 30.4688C24.3739 30.5266 24.3376 30.5739 24.2806 30.5791C24.2755 30.5791 24.2651 30.5791 24.2599 30.5791H21.5557C21.5246 30.5791 21.5143 30.5949 21.5246 30.6211C21.5402 30.7419 21.5713 30.8627 21.6179 30.973C21.7992 31.3196 22.167 31.5139 22.5504 31.4666C22.9026 31.4718 23.2342 31.2985 23.431 31.0045C23.4466 30.973 23.4777 30.9572 23.5139 30.952C23.5295 30.952 23.5502 30.9625 23.5709 30.9887L24.2029 31.6136C24.2029 31.6136 24.2444 31.6661 24.2444 31.6977C24.2392 31.7239 24.2288 31.7449 24.2133 31.7659C24.0112 32.0127 23.7574 32.2018 23.4725 32.3278C23.1565 32.4591 22.8146 32.5274 22.4727 32.5221C22.022 32.5379 21.5816 32.4171 21.1983 32.1808C20.8512 31.9497 20.5922 31.6084 20.4575 31.2145C20.3176 30.8469 20.2554 30.4531 20.271 30.054C20.271 29.7599 20.3124 29.4711 20.4005 29.1927C20.5196 28.7884 20.7683 28.4365 21.105 28.195C21.9028 27.6488 22.9648 27.7066 23.7004 28.3367C24.063 28.7043 24.291 29.1927 24.3428 29.7126V29.7179ZM22.3017 28.9144C21.9702 28.8881 21.6645 29.1087 21.5765 29.4343C21.5557 29.5078 21.535 29.6076 21.5143 29.7179C21.5143 29.7389 21.5246 29.7599 21.5454 29.7599C21.5454 29.7599 21.5505 29.7599 21.5557 29.7599H23.0736C23.1047 29.7599 23.115 29.7441 23.1047 29.7179C23.0736 29.5446 23.0632 29.4605 23.0632 29.4711C23.0218 29.3083 22.9234 29.1612 22.7887 29.0614C22.6488 28.9617 22.4778 28.9091 22.3017 28.9144ZM26.8864 27.8379C27.2335 27.8326 27.5806 27.9009 27.8966 28.0427C28.1763 28.1582 28.4146 28.342 28.5959 28.5888C28.7617 28.8094 28.8498 29.0824 28.8446 29.3608V32.3593C28.8446 32.4171 28.798 32.4644 28.741 32.4644H27.7152C27.6583 32.4644 27.6116 32.4171 27.6116 32.3593V32.0705C27.6116 32.0705 27.6065 32.039 27.5909 32.0337C27.5806 32.0337 27.5702 32.0337 27.5598 32.0548C27.2697 32.4014 26.8294 32.5799 26.3787 32.5431C25.985 32.5589 25.5965 32.4434 25.2753 32.207C24.9852 31.9602 24.8298 31.5926 24.8557 31.2145C24.8349 30.8049 25.0111 30.4111 25.3323 30.159C25.726 29.8807 26.1974 29.7494 26.674 29.7809H27.565C27.565 29.7809 27.6065 29.7704 27.6065 29.7494C27.6065 29.7494 27.6065 29.7441 27.6065 29.7389V29.5498C27.6168 29.3765 27.5547 29.2085 27.4303 29.0877C27.2801 28.9722 27.0936 28.9144 26.9071 28.9302C26.7517 28.9302 26.5963 28.9564 26.4564 29.0247C26.3424 29.0772 26.2596 29.177 26.2233 29.2978C26.2077 29.366 26.1715 29.3923 26.1093 29.387L25.0473 29.2452C24.98 29.2347 24.9489 29.2032 24.9541 29.1612C24.98 28.9144 25.0836 28.6781 25.2494 28.489C25.4359 28.279 25.669 28.1162 25.928 28.0217C26.2285 27.9061 26.5548 27.8484 26.876 27.8484L26.8864 27.8379ZM26.7103 31.6031C26.9382 31.6084 27.1609 31.5401 27.3474 31.3983C27.5132 31.2775 27.6116 31.0832 27.6116 30.8732V30.5581C27.6116 30.5581 27.6013 30.5161 27.5806 30.5161C27.5806 30.5161 27.5754 30.5161 27.5702 30.5161H26.9382C26.7258 30.5056 26.5082 30.5581 26.3269 30.6684C26.1818 30.7577 26.099 30.9204 26.1041 31.0937C26.099 31.2408 26.1611 31.3826 26.2751 31.4718C26.4046 31.5664 26.56 31.6136 26.7206 31.6031H26.7103ZM32.4968 26.3675C32.4968 26.3097 32.5434 26.2624 32.6004 26.2624H33.6157C33.6727 26.2624 33.7194 26.3097 33.7194 26.3675V32.3541C33.7194 32.4119 33.6727 32.4591 33.6157 32.4591H32.6004C32.5434 32.4591 32.4968 32.4119 32.4968 32.3541V32.0653C32.4968 32.0653 32.4916 32.039 32.4761 32.0337C32.4605 32.0337 32.445 32.0337 32.4398 32.0443C32.2067 32.3646 31.8285 32.5484 31.4348 32.5326C31.0566 32.5431 30.6888 32.4224 30.3883 32.1913C30.0879 31.9497 29.8651 31.6189 29.7512 31.2408C29.6475 30.8942 29.5957 30.5318 29.6009 30.1642C29.5957 29.7914 29.6476 29.4238 29.7615 29.0719C29.8807 28.7148 30.0982 28.3998 30.3935 28.1739C30.7044 27.9429 31.0825 27.8221 31.4659 27.8379C31.844 27.8168 32.2015 27.9849 32.4398 28.279C32.4502 28.2947 32.4657 28.3 32.4761 28.3C32.4864 28.3 32.4968 28.2842 32.4968 28.2632V26.3727V26.3675ZM32.3103 31.0832C32.5486 30.4951 32.5434 29.8387 32.2999 29.2557C32.1808 29.0404 31.958 28.9091 31.7145 28.9144C31.4607 28.9039 31.2224 29.0352 31.0877 29.2557C30.9271 29.5446 30.8546 29.8702 30.8701 30.201C30.8598 30.5056 30.9219 30.8102 31.0566 31.0885C31.181 31.3301 31.4296 31.4771 31.699 31.4666C31.958 31.4666 32.1963 31.3196 32.3103 31.0885V31.0832ZM38.6356 29.7179C38.6718 29.9647 38.6822 30.222 38.6667 30.4688C38.6667 30.5266 38.6304 30.5739 38.5734 30.5791C38.5682 30.5791 38.5579 30.5791 38.5527 30.5791H35.8485C35.8174 30.5791 35.8071 30.5949 35.8174 30.6211C35.833 30.7419 35.8641 30.8627 35.9107 30.973C36.092 31.3196 36.4598 31.5139 36.8432 31.4666C37.1954 31.4718 37.527 31.2985 37.7238 31.0045C37.7394 30.973 37.7705 30.9572 37.8067 30.952C37.8223 30.952 37.843 30.9625 37.8637 30.9887L38.4957 31.6136C38.4957 31.6136 38.5371 31.6661 38.5371 31.6977C38.532 31.7239 38.5216 31.7449 38.5061 31.7659C38.304 32.0127 38.0502 32.2018 37.7653 32.3278C37.4493 32.4591 37.1074 32.5274 36.7654 32.5221C36.3147 32.5379 35.8744 32.4171 35.4911 32.1808C35.144 31.9497 34.885 31.6084 34.7503 31.2145C34.6104 30.8469 34.5482 30.4531 34.5638 30.054C34.5638 29.7599 34.6052 29.4711 34.6933 29.1927C34.8124 28.7884 35.0611 28.4365 35.3978 28.195C36.1956 27.6488 37.2576 27.7066 37.9932 28.3367C38.3558 28.7043 38.5838 29.1927 38.6356 29.7126V29.7179ZM36.5945 28.9144C36.2629 28.8881 35.9573 29.1087 35.8692 29.4343C35.8485 29.5078 35.8278 29.6076 35.8071 29.7179C35.8071 29.7389 35.8174 29.7599 35.8382 29.7599C35.8382 29.7599 35.8433 29.7599 35.8485 29.7599H37.3664C37.3975 29.7599 37.4078 29.7441 37.3975 29.7179C37.3664 29.5446 37.356 29.4605 37.356 29.4711C37.3146 29.3083 37.2161 29.1612 37.0814 29.0614C36.9416 28.9617 36.7706 28.9091 36.5945 28.9144ZM41.6661 27.8536C41.8423 27.8431 42.0132 27.8851 42.1634 27.9744C42.2101 28.0006 42.2308 28.0532 42.2204 28.1057L42.0339 29.1192C42.0339 29.1927 41.9925 29.2137 41.9148 29.1822C41.8164 29.1507 41.7127 29.135 41.6091 29.1402C41.547 29.1402 41.4796 29.1402 41.4175 29.1507C41.2154 29.1665 41.0289 29.2505 40.8787 29.387C40.7285 29.5341 40.6508 29.7336 40.6611 29.9437V32.3593C40.6611 32.3856 40.6508 32.4119 40.6352 32.4329C40.6145 32.4539 40.5886 32.4644 40.5627 32.4644H39.537C39.48 32.4644 39.4334 32.4171 39.4334 32.3593V28.0164C39.4334 27.9586 39.48 27.9114 39.537 27.9114H40.5627C40.5886 27.9114 40.6197 27.9219 40.6352 27.9429C40.6508 27.9639 40.6611 27.9901 40.6611 28.0164V28.3525C40.6611 28.3525 40.6663 28.384 40.6819 28.3893C40.6974 28.3945 40.7026 28.3893 40.7077 28.384C40.915 28.0479 41.2776 27.8484 41.6713 27.8536H41.6661ZM11.5782 17.4768C11.6041 17.4348 11.6508 17.4033 11.7026 17.4085H12.7283C12.7853 17.4085 12.8319 17.4558 12.8319 17.5135V23.5002C12.8319 23.5579 12.7853 23.6052 12.7283 23.6052H11.7026C11.6456 23.6052 11.599 23.5579 11.599 23.5002V19.5931C11.599 19.5931 11.5938 19.5563 11.5782 19.5563C11.5627 19.5563 11.5575 19.5669 11.5472 19.5826L10.6147 21.0583C10.5888 21.1003 10.5473 21.1265 10.4955 21.1265H9.97749C9.93086 21.1265 9.88424 21.1003 9.85834 21.0583L8.92586 19.5826C8.92586 19.5826 8.90514 19.5616 8.89478 19.5616C8.88442 19.5616 8.87924 19.5774 8.87406 19.5984V23.4949C8.87406 23.5527 8.82743 23.5999 8.77045 23.5999H7.74473C7.68774 23.5999 7.64111 23.5527 7.64111 23.4949V17.5083C7.64111 17.4505 7.68774 17.4033 7.74473 17.4033H8.77045C8.82225 17.4033 8.86888 17.4295 8.89478 17.4715L10.2054 19.5353C10.221 19.5721 10.2365 19.5721 10.2572 19.5353L11.5731 17.4715L11.5782 17.4768ZM15.8055 23.6787C15.3548 23.6892 14.9144 23.5579 14.5466 23.2901C14.1943 23.0275 13.9457 22.6547 13.8265 22.2293C13.7437 21.9352 13.7074 21.6307 13.7074 21.3261C13.7074 21.0057 13.7437 20.6907 13.8265 20.3808C13.9457 19.966 14.1995 19.6036 14.5518 19.3568C14.9248 19.0995 15.3651 18.9682 15.8106 18.9839C16.2458 18.9734 16.6758 19.0995 17.0332 19.3515C17.3751 19.6036 17.629 19.966 17.7533 20.3756C17.8465 20.6749 17.8932 20.99 17.8932 21.3051C17.8932 21.6044 17.8569 21.909 17.774 22.1978C17.6652 22.6337 17.4166 23.017 17.0643 23.2849C16.7017 23.5527 16.2613 23.6892 15.8106 23.6787H15.8055ZM15.8055 22.6074C15.9816 22.6074 16.1577 22.5497 16.2924 22.4289C16.4323 22.2976 16.5307 22.1295 16.5773 21.9405C16.624 21.7357 16.6499 21.5309 16.6447 21.3208C16.6447 21.1055 16.624 20.8955 16.5773 20.6854C16.5255 20.5016 16.4219 20.3441 16.2821 20.218C16.1422 20.1077 15.9661 20.05 15.7899 20.0552C15.6138 20.05 15.4377 20.1077 15.2978 20.218C15.1631 20.3441 15.0647 20.5069 15.018 20.6854C14.9611 20.8902 14.9351 21.1055 14.9455 21.3208C14.9403 21.5309 14.961 21.7357 15.0077 21.9405C15.0543 22.1295 15.1579 22.2976 15.303 22.4289C15.4428 22.5497 15.6241 22.6127 15.8106 22.6074H15.8055ZM23.6693 18.9787C24.0682 18.9577 24.4516 19.11 24.7313 19.3988C25.0059 19.7244 25.1458 20.1445 25.1199 20.5699V23.5002C25.1199 23.5579 25.0732 23.6052 25.0163 23.6052H23.9905C23.9646 23.6052 23.9335 23.5947 23.918 23.5737C23.9025 23.5527 23.8921 23.5264 23.8921 23.5002V20.8429C23.9025 20.6329 23.8351 20.4281 23.7056 20.2653C23.5813 20.1235 23.4051 20.05 23.2186 20.0552C23.0321 20.05 22.8508 20.1235 22.7213 20.2653C22.5866 20.4228 22.5193 20.6276 22.5296 20.8324V23.4949C22.5296 23.5527 22.483 23.5999 22.426 23.5999H21.4159C21.3589 23.5999 21.3122 23.5527 21.3122 23.4949V20.8377C21.3226 20.6276 21.2553 20.4281 21.1206 20.2705C20.9962 20.1288 20.8149 20.05 20.6284 20.0552C20.4575 20.05 20.2917 20.1077 20.1622 20.218C20.0327 20.3388 19.955 20.5069 19.9394 20.6854V23.4949C19.9394 23.5527 19.8928 23.5999 19.8358 23.5999H18.8101C18.7842 23.5999 18.7583 23.5894 18.7428 23.5684C18.722 23.5474 18.7117 23.5212 18.7117 23.4949V19.152C18.7117 19.1257 18.722 19.0942 18.7428 19.0785C18.7583 19.0575 18.7842 19.047 18.8101 19.047H19.8358C19.8928 19.047 19.9394 19.0942 19.9394 19.152V19.4986C19.9394 19.4986 19.9446 19.5248 19.9602 19.5301C19.9705 19.5406 19.9809 19.5301 19.9912 19.5196C20.2399 19.152 20.6647 18.9472 21.105 18.9734C21.3744 18.9682 21.6386 19.0312 21.8717 19.1625C22.0893 19.2833 22.2603 19.4671 22.3691 19.6929C22.3846 19.7244 22.4053 19.7244 22.4312 19.6929C22.5452 19.4618 22.7265 19.2728 22.9493 19.1467C23.1772 19.026 23.4362 18.9682 23.6901 18.9682L23.6693 18.9787ZM29.9325 20.8587C29.9687 21.1055 29.9843 21.3576 29.9687 21.6097C29.9687 21.6674 29.9325 21.7147 29.8755 21.7199C29.8703 21.7199 29.8599 21.7199 29.8548 21.7199H27.1506C27.1195 21.7199 27.1091 21.7357 27.1195 21.7619C27.135 21.8827 27.1661 22.0035 27.2128 22.1138C27.3889 22.4604 27.7567 22.6547 28.1349 22.6074C28.4871 22.6127 28.8187 22.4394 29.0207 22.1453C29.0363 22.1138 29.0622 22.098 29.0932 22.0928C29.1191 22.0928 29.1399 22.1085 29.1554 22.1295L29.7874 22.7545C29.7874 22.7545 29.8289 22.807 29.8289 22.8385C29.8185 22.8647 29.8081 22.8858 29.7926 22.9068C29.5957 23.1536 29.3367 23.3479 29.0518 23.4687C28.7358 23.5999 28.3991 23.6682 28.0572 23.663C27.6065 23.6787 27.1661 23.5579 26.7828 23.3216C26.4357 23.0906 26.1767 22.7492 26.0316 22.3554C25.8969 21.9825 25.8348 21.5939 25.8503 21.1948C25.8503 20.9007 25.8917 20.6119 25.9798 20.3336C26.099 19.9292 26.3476 19.5774 26.6843 19.3358C27.0314 19.0837 27.4511 18.9524 27.8758 18.9629C28.3887 18.9367 28.8964 19.1205 29.2746 19.4776C29.6424 19.8452 29.8703 20.3336 29.9169 20.8535L29.9325 20.8587ZM27.8966 20.0552C27.565 20.029 27.2594 20.2495 27.1713 20.5751C27.1402 20.6697 27.1195 20.7642 27.1091 20.8587C27.1091 20.8797 27.1195 20.9007 27.1402 20.9007C27.1402 20.9007 27.1454 20.9007 27.1506 20.9007H28.6633C28.6995 20.9007 28.7151 20.885 28.6995 20.8587C28.6684 20.6854 28.6581 20.6014 28.6581 20.6119C28.6115 20.4491 28.5182 20.3021 28.3835 20.2023C28.2385 20.1025 28.0675 20.05 27.8966 20.0552ZM33.0718 18.9787C33.4914 18.9629 33.9007 19.1205 34.2011 19.4146C34.4964 19.7296 34.6467 20.155 34.6259 20.5909V23.4949C34.6259 23.5527 34.5793 23.5999 34.5223 23.5999H33.507C33.45 23.5999 33.4034 23.5527 33.4034 23.4949V20.8482C33.4137 20.6381 33.3412 20.4333 33.2013 20.2705C32.9216 19.9817 32.4657 19.9765 32.1756 20.2548C32.1756 20.2548 32.1652 20.2653 32.16 20.2705C32.0254 20.4281 31.9528 20.6381 31.958 20.8482V23.4949C31.958 23.5527 31.9114 23.5999 31.8544 23.5999H30.839C30.7821 23.5999 30.7354 23.5527 30.7354 23.4949V19.152C30.7354 19.0942 30.7821 19.047 30.839 19.047H31.8544C31.9114 19.047 31.958 19.0942 31.958 19.152V19.4618C31.958 19.4618 31.9632 19.4933 31.9787 19.4986C31.9891 19.4986 31.9995 19.4986 32.0046 19.4881C32.2533 19.1415 32.6522 18.9524 33.0718 18.9734V18.9787ZM38.0916 19.945C38.0916 20.0027 38.045 20.05 37.988 20.05H37.1436C37.1436 20.05 37.1022 20.0605 37.1022 20.0815C37.1022 20.0815 37.1022 20.0867 37.1022 20.092V21.9668C37.0918 22.1243 37.1333 22.2766 37.2213 22.4026C37.3198 22.5024 37.4596 22.5549 37.6047 22.5444H37.8896C37.9466 22.5444 37.9932 22.5917 37.9932 22.6494V23.4897C37.9932 23.5474 37.9569 23.5999 37.9 23.6052C37.9 23.6052 37.8948 23.6052 37.8896 23.6052C37.6461 23.6157 37.4752 23.6262 37.3664 23.6262C36.9934 23.6525 36.6152 23.5684 36.2888 23.3846C36.0195 23.1641 35.8848 22.8175 35.921 22.4656V20.092C35.921 20.092 35.9107 20.05 35.89 20.05C35.89 20.05 35.8848 20.05 35.8796 20.05H35.3823C35.3253 20.05 35.2787 20.0027 35.2787 19.945V19.152C35.2787 19.0942 35.3253 19.047 35.3823 19.047H35.8796C35.8796 19.047 35.921 19.0365 35.921 19.0154C35.921 19.0154 35.921 19.0102 35.921 19.0049V17.9547C35.921 17.8969 35.9677 17.8496 36.0246 17.8496H37.0037C37.0296 17.8496 37.0556 17.8601 37.0711 17.8811C37.0918 17.9021 37.1022 17.9284 37.1022 17.9547V19.0049C37.1022 19.0049 37.1125 19.047 37.1333 19.047C37.1333 19.047 37.1384 19.047 37.1436 19.047H37.988C38.045 19.047 38.0916 19.0942 38.0916 19.152V19.945ZM41.4589 19.152C41.4589 19.1257 41.4693 19.0995 41.4848 19.0785C41.5055 19.0575 41.5314 19.047 41.5573 19.047H42.5831C42.64 19.047 42.6867 19.0942 42.6867 19.152V23.4949C42.6867 23.5527 42.64 23.5999 42.5831 23.5999H41.5573C41.5314 23.5999 41.5003 23.5894 41.4848 23.5684C41.4693 23.5474 41.4589 23.5212 41.4589 23.4949V23.1956C41.4589 23.1956 41.4537 23.1641 41.4382 23.1641C41.4226 23.1641 41.4123 23.1693 41.4019 23.1851C41.1429 23.5159 40.7388 23.6997 40.3244 23.6682C39.9203 23.684 39.5266 23.5369 39.2313 23.2586C38.9309 22.9593 38.7755 22.5444 38.8014 22.119V19.1572C38.8014 19.0995 38.848 19.0522 38.905 19.0522H39.9151C39.9721 19.0522 40.0187 19.0995 40.0187 19.1572V21.8092C40.0084 22.0193 40.0757 22.2241 40.2052 22.3869C40.3348 22.5392 40.5264 22.6179 40.7233 22.6074C40.9046 22.6127 41.0807 22.5497 41.2154 22.4236C41.3449 22.2976 41.4278 22.1295 41.4537 21.951V19.1625L41.4589 19.152ZM48.582 18.9734C48.9809 18.9524 49.3642 19.1047 49.644 19.3936C49.9185 19.7191 50.0584 20.1393 50.0325 20.5646V23.4949C50.0325 23.5527 49.9859 23.5999 49.9289 23.5999H48.9032C48.8773 23.5999 48.8462 23.5894 48.8307 23.5684C48.8151 23.5474 48.8047 23.5212 48.8047 23.4949V20.8377C48.8151 20.6276 48.7478 20.4228 48.6183 20.26C48.4939 20.1183 48.3178 20.0447 48.1313 20.05C47.9448 20.0447 47.7635 20.1183 47.634 20.26C47.4993 20.4176 47.4319 20.6224 47.4423 20.8272V23.4897C47.4423 23.5474 47.3957 23.5947 47.3387 23.5947H46.3285C46.2715 23.5947 46.2249 23.5474 46.2249 23.4897V20.8324C46.2353 20.6224 46.1679 20.4228 46.0332 20.2653C45.9089 20.1235 45.7276 20.0447 45.5411 20.05C45.3701 20.0447 45.2044 20.1025 45.0748 20.2128C44.9453 20.3336 44.8676 20.5016 44.8521 20.6802V23.4897C44.8521 23.5474 44.8055 23.5947 44.7485 23.5947H43.7228C43.6968 23.5947 43.6658 23.5842 43.6502 23.5632C43.6347 23.5422 43.6243 23.5159 43.6243 23.4897V19.1467C43.6243 19.1205 43.6347 19.0942 43.6502 19.0732C43.6709 19.0522 43.6968 19.0417 43.7228 19.0417H44.7485C44.8055 19.0417 44.8521 19.089 44.8521 19.1467V19.4933C44.8521 19.4933 44.8573 19.5196 44.8728 19.5248C44.8832 19.5353 44.8935 19.5248 44.9039 19.5143C45.1525 19.1467 45.5773 18.9419 46.0177 18.9682C46.2871 18.9629 46.5513 19.026 46.7844 19.1572C47.002 19.278 47.1729 19.4618 47.2817 19.6876C47.2972 19.7191 47.318 19.7191 47.3439 19.6876C47.4578 19.4566 47.6391 19.2675 47.8619 19.1415C48.0898 19.0207 48.3489 18.9629 48.6027 18.9629L48.582 18.9734Z" fill="#252530"/>
<path d="M19.2297 42.211C19.1883 42.211 19.152 42.19 19.1416 42.148L18.0071 37.8628V37.8366C18.0019 37.7998 18.0227 37.7788 18.0693 37.7788H18.6806C18.722 37.7788 18.7583 37.7998 18.7686 37.8418L19.4784 40.7301C19.4784 40.7301 19.4887 40.7511 19.4991 40.7511C19.5094 40.7511 19.5146 40.7459 19.5198 40.7301L20.1984 37.8418C20.2088 37.8051 20.2399 37.7788 20.2813 37.7788H20.8823C20.9237 37.7788 20.96 37.7998 20.9703 37.8418L21.6956 40.7354C21.6956 40.7354 21.7059 40.7564 21.7163 40.7564C21.7267 40.7564 21.7318 40.7511 21.737 40.7354L22.4364 37.8418C22.4467 37.7998 22.483 37.7736 22.5245 37.7788H23.1047C23.1616 37.7788 23.1875 37.8051 23.172 37.8628L22.0945 42.148C22.0841 42.19 22.0479 42.2163 22.0064 42.211H21.4262C21.3848 42.211 21.3485 42.19 21.3381 42.148L20.6077 39.1284C20.6077 39.1284 20.5973 39.1074 20.587 39.1022C20.5766 39.1022 20.5714 39.1127 20.5663 39.1284L19.8669 42.148C19.8565 42.1848 19.8254 42.211 19.784 42.211H19.2349H19.2297ZM23.8558 42.211C23.8558 42.211 23.8144 42.2005 23.7988 42.1848C23.7885 42.169 23.7781 42.1533 23.7781 42.1323V37.8523C23.7781 37.8523 23.7833 37.8156 23.7988 37.7998C23.8144 37.7841 23.8351 37.7736 23.8558 37.7736H24.4308C24.4723 37.7788 24.4982 37.8103 24.5034 37.8471V42.127C24.4982 42.169 24.4671 42.1953 24.4308 42.2005H23.8558V42.211ZM27.9587 37.8576C27.9587 37.8576 27.9639 37.8208 27.9794 37.8051C27.995 37.7893 28.0157 37.7788 28.0364 37.7788H28.6114C28.6529 37.7841 28.6788 37.8156 28.684 37.8523V42.1323C28.6788 42.1743 28.6477 42.2005 28.6114 42.2058H28.0571C28.0209 42.2058 27.9846 42.19 27.9691 42.1533L26.1715 39.1652C26.1715 39.1652 26.1559 39.1442 26.1456 39.1442C26.1352 39.1442 26.1352 39.1547 26.1352 39.1757L26.1456 42.127C26.1404 42.169 26.1093 42.1953 26.073 42.2005H25.498C25.498 42.2005 25.4566 42.19 25.441 42.1743C25.4307 42.1585 25.4203 42.1428 25.4203 42.1217V37.8418C25.4203 37.8418 25.4255 37.8051 25.441 37.7893C25.4566 37.7736 25.4773 37.7631 25.498 37.7631H26.0523C26.0886 37.7631 26.1248 37.7788 26.1404 37.8156L27.9328 40.8036C27.9328 40.8036 27.9483 40.8194 27.9587 40.8141C27.9691 40.8141 27.9691 40.8036 27.9691 40.7879V37.8366H27.9639L27.9587 37.8576ZM32.4657 37.7841C32.5071 37.7893 32.533 37.8208 32.5382 37.8576V38.346C32.533 38.388 32.5019 38.4142 32.4657 38.4195H31.3156C31.3156 38.4195 31.2845 38.43 31.2845 38.4405C31.2845 38.4405 31.2845 38.4457 31.2845 38.451V42.1323C31.2845 42.1323 31.2794 42.169 31.2638 42.1848C31.2483 42.2005 31.2276 42.211 31.2068 42.211H30.6318C30.5904 42.2058 30.5645 42.1743 30.5593 42.1375V38.4563C30.5593 38.4563 30.5489 38.4247 30.5386 38.4247C30.5386 38.4247 30.5334 38.4247 30.5282 38.4247H29.4248C29.4248 38.4247 29.3833 38.4142 29.3678 38.3985C29.3574 38.3827 29.3471 38.367 29.3471 38.346V37.8576C29.3471 37.8576 29.3522 37.8208 29.3678 37.8051C29.3833 37.7893 29.404 37.7788 29.4248 37.7788H32.4657V37.7841ZM36.1697 38.3407C36.1645 38.3827 36.1334 38.409 36.0972 38.4142H33.968C33.968 38.4142 33.9369 38.4247 33.9369 38.4352C33.9369 38.4352 33.9369 38.4405 33.9369 38.4457V39.6273C33.9369 39.6273 33.9473 39.6588 33.9576 39.6588C33.9576 39.6588 33.9628 39.6588 33.968 39.6588H35.3978C35.4341 39.6536 35.4651 39.6798 35.4703 39.7166C35.4703 39.7218 35.4703 39.7271 35.4703 39.7376V40.2207C35.4755 40.2575 35.4496 40.289 35.4133 40.2943C35.4082 40.2943 35.403 40.2943 35.3926 40.2943H33.9628C33.9628 40.2943 33.9317 40.3048 33.9317 40.3153C33.9317 40.3153 33.9317 40.3205 33.9317 40.3258V41.5493C33.9317 41.5493 33.9421 41.5809 33.9525 41.5809C33.9525 41.5809 33.9576 41.5809 33.9628 41.5809H36.092C36.1334 41.5861 36.1593 41.6176 36.1645 41.6544V42.1375C36.1593 42.1795 36.1282 42.2058 36.092 42.211H33.2842C33.2842 42.211 33.2427 42.2005 33.2272 42.1848C33.2168 42.169 33.2065 42.1533 33.2065 42.1323V37.8523C33.2065 37.8523 33.2117 37.8156 33.2272 37.7998C33.2427 37.7841 33.2635 37.7736 33.2842 37.7736H36.092C36.1334 37.7788 36.1593 37.8103 36.1645 37.8471V38.3302L36.1697 38.3407ZM39.3608 42.2163C39.3246 42.2163 39.2883 42.1953 39.2728 42.1585L38.4491 40.3363C38.4491 40.3363 38.4283 40.31 38.4128 40.31H37.6616C37.6616 40.31 37.6306 40.3205 37.6306 40.331C37.6306 40.331 37.6306 40.3363 37.6306 40.3415V42.1375C37.6254 42.1795 37.5943 42.2058 37.558 42.211H36.983C36.983 42.211 36.9416 42.2005 36.926 42.1848C36.9157 42.169 36.9053 42.1533 36.9053 42.1323V37.8523C36.9053 37.8523 36.9105 37.8156 36.926 37.7998C36.9416 37.7841 36.9623 37.7736 36.983 37.7736H38.6977C38.9308 37.7736 39.164 37.8208 39.3712 37.9311C39.5629 38.0361 39.7183 38.1937 39.8271 38.388C39.9358 38.598 39.9928 38.8291 39.9876 39.0654C39.998 39.3332 39.9151 39.5906 39.7649 39.8059C39.6147 40.0159 39.3971 40.1682 39.1536 40.2365C39.1432 40.2365 39.1381 40.2365 39.1329 40.247C39.1329 40.2575 39.1329 40.2627 39.1329 40.2732L40.0136 42.1165C40.0136 42.1165 40.0239 42.1428 40.0239 42.1533C40.0239 42.1848 40.0032 42.2058 39.9566 42.2058H39.3556L39.3608 42.2163ZM37.6616 38.4195C37.6616 38.4195 37.6306 38.43 37.6306 38.4405C37.6306 38.4405 37.6306 38.4457 37.6306 38.451V39.7113C37.6306 39.7113 37.6409 39.7428 37.6513 39.7428C37.6513 39.7428 37.6565 39.7428 37.6616 39.7428H38.5993C38.7806 39.7481 38.9568 39.6851 39.0863 39.5591C39.2106 39.433 39.2779 39.2597 39.2676 39.0864C39.2728 38.9079 39.2106 38.7346 39.0863 38.6033C38.9568 38.4773 38.7806 38.4142 38.5993 38.4195H37.6616Z" fill="white"/>
<path d="M20.9962 53.6381C20.9962 53.6381 20.9806 53.6644 20.9858 53.6749C20.9962 53.6854 21.0065 53.6959 21.0221 53.6959H23.4776C23.5035 53.6959 23.5346 53.7064 23.5501 53.7274C23.576 53.7431 23.5864 53.7746 23.5864 53.8009V54.6936C23.5864 54.7251 23.5709 54.7514 23.5501 54.7672C23.5294 54.7882 23.5035 54.7987 23.4776 54.7987H19.4058C19.3747 54.7987 19.3488 54.7882 19.3229 54.7672C19.3022 54.7461 19.2918 54.7199 19.2918 54.6936V53.8482C19.2918 53.7956 19.3125 53.7431 19.3488 53.7064C19.6441 53.4175 19.9446 53.0972 20.2554 52.7506C20.5662 52.404 20.7579 52.1887 20.8356 52.1047C21.0014 51.8999 21.1723 51.7056 21.3485 51.5218C21.7577 51.1594 22.0426 50.6815 22.1721 50.1459C22.1773 49.9463 22.0944 49.752 21.9494 49.6155C21.6023 49.3477 21.1205 49.3477 20.7734 49.6155C20.618 49.7573 20.5351 49.9568 20.5403 50.1669V50.3927C20.5403 50.4505 20.4937 50.4977 20.4367 50.4977H19.3695C19.3436 50.4977 19.3125 50.4872 19.297 50.4662C19.2711 50.4505 19.2607 50.419 19.2607 50.3927V49.9621C19.2763 49.6418 19.3851 49.3372 19.5716 49.0799C19.7632 48.8225 20.0223 48.623 20.3124 48.4969C20.6439 48.3604 21.0014 48.2869 21.3588 48.2921C21.7473 48.2816 22.1307 48.3657 22.4778 48.539C22.7782 48.6807 23.0269 48.9066 23.2082 49.1901C23.3792 49.4632 23.4724 49.7835 23.4724 50.1091C23.4724 50.3822 23.3999 50.6553 23.2807 50.9021C23.1253 51.2172 22.9388 51.5113 22.7109 51.7738C22.5244 52.0101 22.3224 52.2465 22.1048 52.4828C21.8872 52.7191 21.566 53.0552 21.1361 53.4911L20.9962 53.6328V53.6381ZM26.5289 54.9037C25.9538 54.9352 25.384 54.7356 24.954 54.3418C24.5551 53.9374 24.3427 53.3755 24.3738 52.8031V50.377C24.3479 49.8098 24.5551 49.2637 24.954 48.8645C25.384 48.4707 25.9487 48.2711 26.5289 48.3026C27.1091 48.2711 27.6737 48.4759 28.1089 48.8645C28.5078 49.2637 28.7202 49.8098 28.6891 50.377V52.8031C28.7202 53.3755 28.5078 53.9374 28.1089 54.3418C27.6737 54.7304 27.1091 54.9352 26.5289 54.9037ZM26.5289 53.7956C26.7672 53.8061 27.0003 53.7169 27.1712 53.5436C27.337 53.3598 27.4251 53.1182 27.4147 52.8661V50.3402C27.4251 50.0934 27.337 49.8518 27.1712 49.668C26.8086 49.3319 26.2543 49.3319 25.8917 49.668C25.7259 49.8466 25.6378 50.0934 25.6482 50.3402V52.8661C25.6378 53.1182 25.7259 53.3598 25.8917 53.5436C26.0575 53.7169 26.2906 53.8061 26.5289 53.7956ZM31.2223 53.6381C31.2223 53.6381 31.2068 53.6644 31.2172 53.6749C31.2172 53.6854 31.2327 53.6959 31.2534 53.6959H33.7089C33.7659 53.6959 33.8125 53.7431 33.8125 53.8009V54.6936C33.8125 54.7514 33.7659 54.7987 33.7089 54.7987H29.6319C29.575 54.7987 29.5283 54.7514 29.5283 54.6936V53.8482C29.5283 53.7956 29.5439 53.7484 29.5801 53.7064C29.8806 53.4175 30.1811 53.0972 30.4867 52.7506C30.7924 52.404 30.984 52.1887 31.0669 52.1047C31.2379 51.8999 31.4088 51.7056 31.585 51.5218C31.9942 51.1594 32.2791 50.6815 32.4087 50.1459C32.4138 49.9463 32.3309 49.752 32.1859 49.6155C32.0201 49.4737 31.8077 49.4054 31.5953 49.4107C31.3829 49.4002 31.1705 49.4737 31.0099 49.6155C30.8597 49.7573 30.7768 49.9568 30.7872 50.1669V50.3927C30.7872 50.419 30.7768 50.4505 30.7561 50.4662C30.7354 50.4872 30.7043 50.4977 30.6732 50.4977H29.606C29.5491 50.4977 29.5024 50.4505 29.5024 50.3927V49.9621C29.5128 49.647 29.6216 49.3372 29.8081 49.0799C29.9998 48.8225 30.2588 48.623 30.5592 48.4969C30.8908 48.3604 31.2431 48.2869 31.6005 48.2921C31.989 48.2816 32.3724 48.3657 32.7195 48.539C33.0199 48.6807 33.2738 48.9066 33.4551 49.1901C33.626 49.4632 33.7141 49.7835 33.7089 50.1091C33.7089 50.3822 33.6416 50.6553 33.5224 50.9021C33.367 51.2172 33.1702 51.506 32.9474 51.7738C32.7609 52.0101 32.5589 52.2465 32.3413 52.4828C32.1237 52.7191 31.8025 53.0552 31.3726 53.4911L31.2327 53.6328L31.2223 53.6381ZM38.3765 51.7371C38.5008 52.0417 38.563 52.3725 38.5578 52.7033C38.5578 53.0184 38.506 53.3283 38.3972 53.6223C38.2625 54.0004 38.0035 54.326 37.6668 54.5413C37.3041 54.7724 36.8845 54.8879 36.4546 54.8774C36.0298 54.8879 35.6102 54.7671 35.2475 54.5308C34.9056 54.2998 34.6466 53.9689 34.4964 53.5803C34.4083 53.3335 34.3617 53.0709 34.3513 52.8084C34.3461 52.7559 34.3772 52.7086 34.429 52.7033C34.4394 52.7033 34.4446 52.7033 34.4549 52.7033H35.5273C35.5791 52.6981 35.6257 52.7296 35.6309 52.7821C35.6309 52.7926 35.6309 52.7979 35.6309 52.8084C35.6464 52.9607 35.6775 53.1129 35.7293 53.26C35.8277 53.5698 36.1126 53.7746 36.4338 53.7641C36.7395 53.7851 37.0192 53.6013 37.1332 53.3125C37.2213 53.1129 37.2627 52.8924 37.2575 52.6718C37.2679 52.4303 37.2213 52.1834 37.1177 51.9629C36.9985 51.6846 36.7239 51.5165 36.4235 51.5323C36.351 51.5323 36.2784 51.5533 36.2111 51.59C36.1386 51.632 36.0505 51.6898 35.9469 51.7633C35.9262 51.7791 35.9054 51.7896 35.8795 51.7896C35.8433 51.7896 35.8122 51.7686 35.7966 51.7371L35.2579 50.9704C35.2579 50.9704 35.2372 50.9284 35.2372 50.9074C35.2372 50.8758 35.2475 50.8391 35.2734 50.8181L36.7084 49.542C36.7084 49.542 36.7239 49.521 36.7291 49.5052C36.7291 49.4947 36.7136 49.4842 36.698 49.4842H34.5689C34.5378 49.4842 34.5119 49.4737 34.486 49.4527C34.4653 49.4317 34.4549 49.4054 34.4549 49.3792V48.4864C34.4549 48.4602 34.4653 48.4287 34.486 48.4129C34.5067 48.3919 34.5378 48.3814 34.5689 48.3814H38.3402C38.3713 48.3814 38.3972 48.3919 38.4231 48.4129C38.4438 48.4339 38.4542 48.4602 38.4542 48.4864V49.5C38.4542 49.5525 38.4283 49.605 38.392 49.6418L37.2057 50.7446C37.2057 50.7446 37.1902 50.7656 37.1954 50.7761C37.2005 50.7866 37.2109 50.7918 37.2316 50.7971C37.7445 50.8916 38.1693 51.2539 38.3558 51.7476L38.3765 51.7371Z" fill="#252530"/>
</svg>
