<svg width="141" height="36" viewBox="0 0 141 36" fill="none" xmlns="http://www.w3.org/2000/svg">
<g clip-path="url(#clip0_1075_43963)">
<path d="M6.75 11.25H24.75V29.25C24.75 30.14 24.58 31.01 24.24 31.83C23.9 32.65 23.4 33.39 22.78 34.02C22.15 34.65 21.41 35.14 20.59 35.48C19.77 35.82 18.89 35.99 18.01 35.99H6.75C5.86 35.99 4.99 35.82 4.17 35.48C3.35 35.14 2.61 34.64 1.98 34.02C1.35 33.39 0.86 32.65 0.52 31.83C0.17 31.01 0 30.14 0 29.25V18C0 17.11 0.17 16.24 0.51 15.42C0.85 14.6 1.35 13.86 1.97 13.23C2.6 12.6 3.34 12.11 4.16 11.77C4.98 11.43 5.86 11.26 6.74 11.26L6.75 11.25Z" fill="url(#paint0_linear_1075_43963)"/>
<path d="M24.75 11.25H18V18.21H24.75V11.25Z" fill="#C40D40"/>
<path d="M28.12 15.75H20.25V7.88C20.25 6.32 20.71 4.8 21.58 3.5C22.45 2.21 23.68 1.2 25.11 0.6C26.55 0 28.13 -0.15 29.66 0.15C31.19 0.45 32.59 1.2 33.69 2.31C34.79 3.41 35.54 4.81 35.85 6.34C36.15 7.87 36 9.45 35.4 10.89C34.8 12.33 33.79 13.56 32.5 14.42C31.2 15.29 29.68 15.75 28.12 15.75Z" fill="#09A2DD"/>
<path d="M25.88 6.75C26.18 6.75 26.47 6.87 26.68 7.08C26.89 7.29 27.01 7.58 27.01 7.88C27.01 8.18 26.89 8.47 26.68 8.68C26.47 8.89 26.18 9.01 25.88 9.01C25.58 9.01 25.29 8.89 25.08 8.68C24.87 8.47 24.75 8.18 24.75 7.88C24.75 7.58 24.87 7.29 25.08 7.08C25.29 6.87 25.58 6.75 25.88 6.75Z" fill="white"/>
<path d="M30.3702 6.75C30.6702 6.75 30.9602 6.87 31.1702 7.08C31.3802 7.29 31.5002 7.58 31.5002 7.88C31.5002 8.18 31.3802 8.47 31.1702 8.68C30.9602 8.89 30.6702 9.01 30.3702 9.01C30.0702 9.01 29.7802 8.89 29.5702 8.68C29.3602 8.47 29.2402 8.18 29.2402 7.88C29.2402 7.58 29.3602 7.29 29.5702 7.08C29.7802 6.87 30.0702 6.75 30.3702 6.75Z" fill="white"/>
<path d="M126.2 13.8501C126.05 13.7001 125.86 13.5701 125.66 13.4901C125.46 13.4101 125.24 13.3701 125.02 13.3701C124.58 13.3701 124.16 13.5601 123.85 13.8701C123.54 14.1901 123.37 14.6101 123.38 15.0501C123.39 15.4801 123.57 15.9001 123.88 16.2001C124.19 16.5001 124.61 16.6801 125.04 16.6801C125.26 16.6801 125.47 16.6401 125.67 16.5501C125.87 16.4701 126.05 16.3401 126.2 16.1901C126.35 16.0401 126.47 15.8501 126.56 15.6501C126.65 15.4501 126.68 15.2301 126.68 15.0201C126.68 14.8001 126.64 14.5801 126.55 14.3801C126.47 14.1801 126.34 14.0001 126.19 13.8401L126.2 13.8501Z" fill="#393939"/>
<path d="M113.04 18.6501C110.89 17.8501 108.86 18.1401 106.9 19.4101V18.6301H104.37V35.3901H106.9V29.6801C108.22 30.6301 109.86 31.0501 111.47 30.8501C113.07 30.6801 114.54 29.9101 115.57 28.6901C117.36 26.6401 117.56 23.4601 116.05 21.0901C115.34 19.9701 114.28 19.1101 113.03 18.6601L113.04 18.6501ZM110.7 28.3801C108.55 28.3801 106.9 26.7301 106.9 24.5501C106.9 22.3701 108.54 20.7401 110.71 20.7401C112.85 20.7401 114.49 22.3901 114.48 24.5501C114.48 26.7301 112.85 28.3801 110.7 28.3801Z" fill="#393939"/>
<path d="M57.9698 19.0698C56.6698 18.2598 55.2298 18.0698 53.7298 18.2798C51.9698 18.5198 50.5198 19.3298 49.4898 20.8098C48.6298 22.0498 48.2998 23.4398 48.3898 24.9198C48.5098 26.9798 49.3598 28.6698 51.1098 29.8198C52.3998 30.6698 53.8498 30.9298 55.3798 30.8598C56.8798 30.7898 58.2198 30.3098 59.3298 29.2898C59.6598 28.9898 59.9298 28.6298 60.2498 28.2798L58.1098 27.0298C56.9198 28.5898 54.9498 28.7698 53.4398 28.2798C52.1598 27.8698 51.3898 26.9798 51.0798 25.6398H60.6998C60.8298 24.9498 60.8398 24.2498 60.7398 23.5498C60.4698 21.6498 59.6398 20.0998 57.9698 19.0598V19.0698ZM51.1098 23.5198C51.2398 22.2398 52.3398 20.6298 54.5198 20.5398C56.6998 20.4498 58.0098 21.9398 58.1798 23.5198H51.1098Z" fill="#393939"/>
<path d="M140.5 22.1299C140.18 21.3599 139.72 20.6499 139.12 20.0599C138.53 19.4699 137.83 18.9999 137.05 18.6799C136.28 18.3599 135.45 18.1999 134.61 18.2099C131.04 18.2099 128.22 20.9699 128.22 24.4699C128.22 28.0999 130.97 30.8799 134.59 30.8799C138.16 30.8799 140.96 28.0999 140.96 24.5599C140.96 23.7199 140.81 22.8999 140.49 22.1199L140.5 22.1299ZM138.09 26.0799C137.9 26.5399 137.62 26.9599 137.26 27.2999C136.9 27.6499 136.48 27.9199 136.02 28.0999C135.56 28.2799 135.06 28.3699 134.56 28.3599C132.42 28.3399 130.8 26.6899 130.81 24.5299C130.82 22.3399 132.43 20.7099 134.62 20.7199C136.81 20.7199 138.39 22.3699 138.38 24.6299C138.38 25.1299 138.29 25.6199 138.09 26.0799Z" fill="#393939"/>
<path d="M96.08 18.21C92.46 18.21 89.64 20.95 89.63 24.51C89.61 28.07 92.41 30.87 95.99 30.88C99.55 30.88 102.36 28.14 102.37 24.64C102.38 21.03 99.63 18.22 96.09 18.21H96.08ZM95.89 28.37C93.7 28.31 92.13 26.56 92.21 24.34C92.28 22.27 93.95 20.69 96.09 20.73C96.59 20.73 97.08 20.84 97.54 21.03C98 21.23 98.41 21.51 98.76 21.87C99.1 22.23 99.37 22.65 99.55 23.12C99.73 23.59 99.81 24.08 99.79 24.58C99.74 26.81 98.09 28.43 95.9 28.37H95.89Z" fill="#393939"/>
<path d="M86.5399 20.05C85.9499 19.46 85.2499 18.99 84.4699 18.68C83.6999 18.36 82.8699 18.21 82.0299 18.21C78.4499 18.21 75.6299 20.99 75.6299 24.54C75.6299 25.38 75.7899 26.21 76.1099 26.98C76.4299 27.75 76.8999 28.46 77.4899 29.05C78.0899 29.64 78.7899 30.11 79.5699 30.42C80.3499 30.73 81.1799 30.89 82.0199 30.88C85.6099 30.88 88.3799 28.12 88.3799 24.55C88.3799 23.71 88.2299 22.89 87.9199 22.11C87.5999 21.34 87.1399 20.63 86.5499 20.04L86.5399 20.05ZM81.9899 28.37C79.8399 28.37 78.2299 26.71 78.2299 24.51C78.2299 22.36 79.8699 20.73 82.0199 20.73C84.1699 20.73 85.7999 22.35 85.8099 24.53C85.8099 26.71 84.1399 28.38 81.9899 28.37Z" fill="#393939"/>
<path d="M42.2102 27.6198H42.1402C41.0202 24.5898 39.9002 21.5598 38.7802 18.5298H35.9702C36.0002 18.6398 36.0302 18.7198 36.0602 18.8098C37.5602 22.6298 39.0502 26.4598 40.5402 30.2898C40.5602 30.3798 40.6102 30.4498 40.6902 30.4998C40.7702 30.5498 40.8602 30.5698 40.9402 30.5598C41.7402 30.5498 42.5402 30.5398 43.3302 30.5598C43.4302 30.5798 43.5302 30.5598 43.6202 30.4998C43.7002 30.4398 43.7602 30.3598 43.7902 30.2598C45.1102 26.8798 46.4202 23.5098 47.7402 20.1398C47.9502 19.6098 48.1502 19.0798 48.3602 18.5398H45.5402C44.4302 21.5698 43.3202 24.5998 42.2102 27.6298V27.6198Z" fill="#393939"/>
<path d="M73.7302 13H71.1802V30.55H73.7302V13Z" fill="#393939"/>
<path d="M126.32 18.52H123.78V30.54H126.32V18.52Z" fill="#393939"/>
<path d="M120.9 27.79C120.73 27.62 120.53 27.49 120.31 27.4C120.09 27.31 119.85 27.27 119.61 27.27C119.37 27.27 119.14 27.31 118.92 27.4C118.7 27.49 118.5 27.62 118.34 27.79C118.17 27.96 118.04 28.15 117.95 28.37C117.86 28.59 117.82 28.82 117.82 29.06C117.83 29.53 118.03 29.97 118.36 30.3C118.69 30.63 119.15 30.81 119.61 30.81C120.08 30.81 120.53 30.63 120.87 30.31C121.21 29.98 121.41 29.54 121.42 29.07C121.42 28.83 121.38 28.59 121.29 28.37C121.2 28.15 121.07 27.95 120.9 27.78V27.79Z" fill="#393939"/>
<path d="M69.0001 18.6201H66.9301C64.5601 18.6201 62.6401 20.5401 62.6401 22.9101V30.5601H65.2201V23.1001C65.2201 22.0501 66.0701 21.2101 67.1101 21.2101H68.9901V18.6301L69.0001 18.6201Z" fill="#393939"/>
</g>
<defs>
<linearGradient id="paint0_linear_1075_43963" x1="4.554" y1="13.4766" x2="22.02" y2="32.1871" gradientUnits="userSpaceOnUse">
<stop stop-color="#E91476"/>
<stop offset="1" stop-color="#F82D38"/>
</linearGradient>
<clipPath id="clip0_1075_43963">
<rect width="140.97" height="36" fill="white"/>
</clipPath>
</defs>
</svg>
